<svg width="249" height="25" viewBox="0 0 249 25" fill="none" xmlns="http://www.w3.org/2000/svg">
<path d="M38.8735 21H31.8862V20.0259L35.5776 15.9243C36.1245 15.3042 36.5005 14.8013 36.7056 14.4155C36.9155 14.0249 37.0205 13.6221 37.0205 13.207C37.0205 12.6504 36.8521 12.1938 36.5151 11.8374C36.1782 11.481 35.729 11.3027 35.1675 11.3027C34.4937 11.3027 33.9688 11.4956 33.5928 11.8813C33.2217 12.2622 33.0361 12.7944 33.0361 13.478H31.6812C31.6812 12.4966 31.9961 11.7031 32.626 11.0977C33.2607 10.4922 34.1079 10.1895 35.1675 10.1895C36.1587 10.1895 36.9424 10.4507 37.5186 10.9731C38.0947 11.4907 38.3828 12.1816 38.3828 13.0459C38.3828 14.0957 37.7139 15.3457 36.376 16.7959L33.5195 19.894H38.8735V21ZM46.7764 13.1191C46.7764 13.6514 46.6348 14.125 46.3516 14.54C46.0732 14.9551 45.6948 15.2798 45.2163 15.5142C45.7729 15.7534 46.2124 16.1025 46.5347 16.5615C46.8618 17.0205 47.0254 17.5405 47.0254 18.1216C47.0254 19.0444 46.7129 19.7793 46.0879 20.3262C45.4678 20.873 44.6499 21.1465 43.6343 21.1465C42.6089 21.1465 41.7861 20.873 41.166 20.3262C40.5508 19.7744 40.2432 19.0396 40.2432 18.1216C40.2432 17.5454 40.3994 17.0254 40.7119 16.5615C41.0293 16.0977 41.4663 15.7461 42.0229 15.5068C41.5493 15.2725 41.1758 14.9478 40.9023 14.5327C40.6289 14.1177 40.4922 13.6465 40.4922 13.1191C40.4922 12.2207 40.7803 11.5078 41.3564 10.9805C41.9326 10.4531 42.6919 10.1895 43.6343 10.1895C44.5718 10.1895 45.3286 10.4531 45.9048 10.9805C46.4858 11.5078 46.7764 12.2207 46.7764 13.1191ZM45.6704 18.0923C45.6704 17.4966 45.48 17.0107 45.0991 16.6348C44.7231 16.2588 44.23 16.0708 43.6196 16.0708C43.0093 16.0708 42.5186 16.2563 42.1475 16.6274C41.7812 16.9985 41.5981 17.4868 41.5981 18.0923C41.5981 18.6978 41.7764 19.1738 42.1328 19.5205C42.4941 19.8672 42.9946 20.0405 43.6343 20.0405C44.269 20.0405 44.7671 19.8672 45.1284 19.5205C45.4897 19.1689 45.6704 18.6929 45.6704 18.0923ZM43.6343 11.3027C43.1021 11.3027 42.6699 11.4688 42.3379 11.8008C42.0107 12.1279 41.8472 12.5747 41.8472 13.1411C41.8472 13.6831 42.0083 14.1226 42.3306 14.4595C42.6577 14.7915 43.0923 14.9575 43.6343 14.9575C44.1763 14.9575 44.6084 14.7915 44.9307 14.4595C45.2578 14.1226 45.4214 13.6831 45.4214 13.1411C45.4214 12.5991 45.2529 12.1572 44.916 11.8154C44.5791 11.4736 44.1519 11.3027 43.6343 11.3027Z" fill="#999999"/>
<path d="M170.377 16.0708H165.755V19.8501H171.124V21H164.349V10.3359H171.051V11.4932H165.755V14.9209H170.377V16.0708ZM172.787 21V13.0752H175.877C176.932 13.0752 177.74 13.2607 178.302 13.6318C178.868 13.998 179.151 14.5376 179.151 15.2505C179.151 15.6167 179.042 15.9487 178.822 16.2466C178.602 16.5396 178.277 16.7642 177.848 16.9204C178.326 17.0327 178.709 17.2524 178.998 17.5796C179.291 17.9067 179.437 18.2974 179.437 18.7515C179.437 19.479 179.168 20.0356 178.631 20.4214C178.099 20.8071 177.345 21 176.368 21H172.787ZM174.142 17.521V19.9087H176.383C176.949 19.9087 177.372 19.8037 177.65 19.5938C177.933 19.3838 178.075 19.0884 178.075 18.7075C178.075 17.9165 177.494 17.521 176.332 17.521H174.142ZM174.142 16.437H175.892C177.162 16.437 177.796 16.0659 177.796 15.3237C177.796 14.5815 177.196 14.1982 175.995 14.1738H174.142V16.437ZM187.926 17.1255C187.926 18.3315 187.65 19.3032 187.098 20.0405C186.546 20.7778 185.799 21.1465 184.857 21.1465C183.895 21.1465 183.138 20.8413 182.586 20.231V24.0469H181.231V13.0752H182.469L182.535 13.9541C183.087 13.2705 183.854 12.9287 184.835 12.9287C185.787 12.9287 186.539 13.2876 187.091 14.0054C187.647 14.7231 187.926 15.7217 187.926 17.001V17.1255ZM186.571 16.9717C186.571 16.0781 186.38 15.3726 186 14.855C185.619 14.3374 185.096 14.0786 184.432 14.0786C183.612 14.0786 182.997 14.4424 182.586 15.1699V18.9565C182.992 19.6792 183.612 20.0405 184.447 20.0405C185.096 20.0405 185.611 19.7842 185.992 19.2715C186.378 18.7539 186.571 17.9873 186.571 16.9717ZM189.295 16.9644C189.295 16.188 189.447 15.4897 189.75 14.8696C190.057 14.2495 190.482 13.771 191.024 13.4341C191.571 13.0972 192.193 12.9287 192.892 12.9287C193.971 12.9287 194.842 13.3022 195.506 14.0493C196.175 14.7964 196.51 15.79 196.51 17.0303V17.1255C196.51 17.897 196.361 18.5903 196.063 19.2056C195.77 19.8159 195.348 20.292 194.796 20.6338C194.249 20.9756 193.619 21.1465 192.906 21.1465C191.832 21.1465 190.96 20.7729 190.292 20.0259C189.627 19.2788 189.295 18.29 189.295 17.0596V16.9644ZM190.658 17.1255C190.658 18.0044 190.86 18.71 191.266 19.2422C191.676 19.7744 192.223 20.0405 192.906 20.0405C193.595 20.0405 194.142 19.772 194.547 19.2349C194.952 18.6929 195.155 17.936 195.155 16.9644C195.155 16.0952 194.947 15.3921 194.532 14.855C194.122 14.313 193.575 14.042 192.892 14.042C192.223 14.042 191.683 14.3081 191.273 14.8403C190.863 15.3726 190.658 16.1343 190.658 17.1255ZM204.903 17.1255C204.903 18.3315 204.627 19.3032 204.076 20.0405C203.524 20.7778 202.777 21.1465 201.834 21.1465C200.873 21.1465 200.116 20.8413 199.564 20.231V24.0469H198.209V13.0752H199.447L199.513 13.9541C200.064 13.2705 200.831 12.9287 201.812 12.9287C202.765 12.9287 203.517 13.2876 204.068 14.0054C204.625 14.7231 204.903 15.7217 204.903 17.001V17.1255ZM203.548 16.9717C203.548 16.0781 203.358 15.3726 202.977 14.855C202.596 14.3374 202.074 14.0786 201.41 14.0786C200.589 14.0786 199.974 14.4424 199.564 15.1699V18.9565C199.969 19.6792 200.589 20.0405 201.424 20.0405C202.074 20.0405 202.589 19.7842 202.97 19.2715C203.355 18.7539 203.548 17.9873 203.548 16.9717ZM209.92 21.1465C208.846 21.1465 207.972 20.7949 207.298 20.0918C206.625 19.3838 206.288 18.439 206.288 17.2573V17.0083C206.288 16.2222 206.437 15.5215 206.734 14.9062C207.037 14.2861 207.457 13.8027 207.994 13.4561C208.536 13.1045 209.122 12.9287 209.752 12.9287C210.782 12.9287 211.583 13.2681 212.154 13.9468C212.726 14.6255 213.011 15.5972 213.011 16.8618V17.4258H207.643C207.662 18.207 207.889 18.8394 208.324 19.3228C208.763 19.8013 209.32 20.0405 209.994 20.0405C210.472 20.0405 210.877 19.9429 211.209 19.7476C211.542 19.5522 211.832 19.2935 212.081 18.9712L212.909 19.6157C212.245 20.6362 211.249 21.1465 209.92 21.1465ZM209.752 14.042C209.205 14.042 208.746 14.2422 208.375 14.6426C208.004 15.0381 207.774 15.5947 207.687 16.3125H211.656V16.21C211.617 15.5215 211.432 14.9893 211.1 14.6133C210.768 14.2324 210.318 14.042 209.752 14.042ZM219.149 19.2056L221.844 13.0752H223.536V21H222.181V15.2358L219.618 21H218.68L216.065 15.1113V21H214.71V13.0752H216.468L219.149 19.2056ZM225.36 16.9644C225.36 16.188 225.511 15.4897 225.814 14.8696C226.122 14.2495 226.546 13.771 227.088 13.4341C227.635 13.0972 228.258 12.9287 228.956 12.9287C230.035 12.9287 230.907 13.3022 231.571 14.0493C232.24 14.7964 232.574 15.79 232.574 17.0303V17.1255C232.574 17.897 232.425 18.5903 232.127 19.2056C231.834 19.8159 231.412 20.292 230.86 20.6338C230.313 20.9756 229.684 21.1465 228.971 21.1465C227.896 21.1465 227.025 20.7729 226.356 20.0259C225.692 19.2788 225.36 18.29 225.36 17.0596V16.9644ZM226.722 17.1255C226.722 18.0044 226.925 18.71 227.33 19.2422C227.74 19.7744 228.287 20.0405 228.971 20.0405C229.659 20.0405 230.206 19.772 230.611 19.2349C231.017 18.6929 231.219 17.936 231.219 16.9644C231.219 16.0952 231.012 15.3921 230.597 14.855C230.187 14.313 229.64 14.042 228.956 14.042C228.287 14.042 227.748 14.3081 227.337 14.8403C226.927 15.3726 226.722 16.1343 226.722 17.1255ZM240.748 21H239.393V17.6162H235.753V21H234.391V13.0752H235.753V16.5103H239.393V13.0752H240.748V21ZM248.819 14.1738H246.161V21H244.806V14.1738H242.198V13.0752H248.819V14.1738Z" fill="#999999"/>
<path d="M90.3394 21H88.9771V11.9692L86.2451 12.9727V11.7422L90.127 10.2847H90.3394V21ZM100.996 16.4517C100.996 18.0386 100.725 19.2178 100.183 19.9893C99.6411 20.7607 98.7939 21.1465 97.6416 21.1465C96.5039 21.1465 95.6616 20.7705 95.1147 20.0186C94.5679 19.2617 94.2847 18.1338 94.2651 16.6348V14.8257C94.2651 13.2583 94.5361 12.0938 95.0781 11.332C95.6201 10.5703 96.4697 10.1895 97.627 10.1895C98.7744 10.1895 99.6191 10.5581 100.161 11.2954C100.703 12.0278 100.981 13.1606 100.996 14.6938V16.4517ZM99.6411 14.5986C99.6411 13.4512 99.48 12.6162 99.1577 12.0938C98.8354 11.5664 98.3252 11.3027 97.627 11.3027C96.9336 11.3027 96.4282 11.564 96.1108 12.0864C95.7935 12.6089 95.6299 13.4121 95.6201 14.4961V16.6641C95.6201 17.8164 95.7861 18.6685 96.1182 19.2202C96.4551 19.7671 96.9629 20.0405 97.6416 20.0405C98.3105 20.0405 98.8062 19.7817 99.1284 19.2642C99.4556 18.7466 99.6265 17.9312 99.6411 16.8179V14.5986ZM109.419 16.4517C109.419 18.0386 109.148 19.2178 108.606 19.9893C108.064 20.7607 107.217 21.1465 106.064 21.1465C104.927 21.1465 104.084 20.7705 103.538 20.0186C102.991 19.2617 102.708 18.1338 102.688 16.6348V14.8257C102.688 13.2583 102.959 12.0938 103.501 11.332C104.043 10.5703 104.893 10.1895 106.05 10.1895C107.197 10.1895 108.042 10.5581 108.584 11.2954C109.126 12.0278 109.404 13.1606 109.419 14.6938V16.4517ZM108.064 14.5986C108.064 13.4512 107.903 12.6162 107.581 12.0938C107.258 11.5664 106.748 11.3027 106.05 11.3027C105.356 11.3027 104.851 11.564 104.534 12.0864C104.216 12.6089 104.053 13.4121 104.043 14.4961V16.6641C104.043 17.8164 104.209 18.6685 104.541 19.2202C104.878 19.7671 105.386 20.0405 106.064 20.0405C106.733 20.0405 107.229 19.7817 107.551 19.2642C107.878 18.7466 108.049 17.9312 108.064 16.8179V14.5986ZM119.578 19.2056L122.273 13.0752H123.965V21H122.61V15.2358L120.046 21H119.109L116.494 15.1113V21H115.139V13.0752H116.897L119.578 19.2056ZM130.125 16.1147H125.737V15.3237L127.935 13.2583C128.467 12.7603 128.733 12.3428 128.733 12.0059C128.733 11.7666 128.655 11.5737 128.499 11.4272C128.342 11.2759 128.118 11.2002 127.825 11.2002C127.458 11.2002 127.188 11.293 127.012 11.4785C126.841 11.6641 126.755 11.896 126.755 12.1743H125.605C125.605 11.6177 125.808 11.1587 126.213 10.7974C126.624 10.436 127.151 10.2554 127.795 10.2554C128.44 10.2554 128.95 10.4116 129.326 10.7241C129.702 11.0317 129.89 11.4541 129.89 11.9912C129.89 12.499 129.629 13.0142 129.106 13.5366L128.491 14.1152L127.202 15.1772H130.125V16.1147Z" fill="#999999"/>
<path d="M23.302 10.1267C23.046 9.88306 22.736 9.71012 22.4 9.59855V7.23141C22.4 6.00041 21.324 5 20 5H13.6C12.984 5 12.426 5.22314 12 5.58017C11.574 5.22314 11.016 5 10.4 5H4C2.676 5 1.6 6.00041 1.6 7.23141V9.60041C0.67 9.90723 0 10.7254 0 11.6942V20.6198C0 21.0308 0.358 21.3636 0.8 21.3636H4C4.442 21.3636 4.8 21.0308 4.8 20.6198V19.876H19.2V20.6198C19.2 21.0308 19.558 21.3636 20 21.3636H23.2C23.642 21.3636 24 21.0308 24 20.6198V11.6942C24 11.0917 23.746 10.5283 23.302 10.1267ZM13.6 6.4876H20C20.442 6.4876 20.8 6.82045 20.8 7.23141V9.59112C20.774 9.60041 20.748 9.61343 20.722 9.62273C20.678 9.63946 20.634 9.65806 20.592 9.67665C20.502 9.7157 20.418 9.75847 20.334 9.80682C20.294 9.82913 20.256 9.85145 20.218 9.87562C20.124 9.93884 20.034 10.0076 19.95 10.082C19.932 10.0969 19.912 10.1099 19.896 10.1267C19.798 10.2196 19.71 10.32 19.63 10.426C19.608 10.4558 19.59 10.4874 19.57 10.519C19.516 10.6008 19.466 10.6826 19.422 10.7719C19.402 10.8128 19.384 10.8537 19.366 10.8965C19.33 10.9839 19.3 11.0731 19.276 11.1643C19.266 11.2052 19.252 11.2442 19.244 11.287C19.218 11.4171 19.2 11.5548 19.2 11.6942V12.438H12.8V7.23141C12.8 6.82045 13.158 6.4876 13.6 6.4876ZM4.8 13.9256H12H19.2V14.6694H4.8V13.9256ZM3.2 7.23141C3.2 6.82045 3.558 6.4876 4 6.4876H10.4C10.842 6.4876 11.2 6.82045 11.2 7.23141V12.438H4.8V11.6942C4.8 11.0917 4.546 10.5283 4.102 10.1267C3.982 10.0114 3.848 9.91281 3.706 9.82541C3.66 9.79752 3.61 9.77707 3.562 9.75289C3.462 9.70083 3.362 9.65248 3.256 9.61343C3.236 9.60599 3.22 9.59483 3.2 9.5874V7.23141ZM3.2 19.876H1.6V11.6942C1.6 11.2833 1.958 10.9504 2.4 10.9504C2.614 10.9504 2.81 11.0267 2.97 11.1773C3.118 11.313 3.2 11.4952 3.2 11.6942V13.1818V15.4132V19.1322V19.876ZM4.8 18.3884V16.157H19.2V18.3884H4.8ZM22.4 19.876H20.8V19.1322V15.4132V13.1818V11.6942C20.8 11.2833 21.158 10.9504 21.6 10.9504C21.814 10.9504 22.01 11.0267 22.17 11.1773C22.318 11.3112 22.4 11.4952 22.4 11.6942V19.876Z" fill="#999999"/>
<path d="M60.5017 1H75.4983C76.8821 1 78 2.11793 78 3.5017V18.4983C78 19.8821 76.8821 21 75.4983 21H60.5017C59.1179 21 58 19.8821 58 18.4983V3.5017C58 2.11793 59.1179 1 60.5017 1Z" stroke="#999999" stroke-width="1.4" stroke-miterlimit="7.3333" stroke-linecap="round" stroke-linejoin="round"/>
<path d="M71.4082 17.8164H74.8164V14.4081" stroke="#999999" stroke-width="1.4" stroke-linecap="round" stroke-linejoin="round"/>
<path d="M69.7046 12.704L74.8169 17.8164" stroke="#999999" stroke-width="1.4" stroke-linecap="round" stroke-linejoin="round"/>
<path d="M64.5918 4.18336H61.1836V7.59161" stroke="#999999" stroke-width="1.4" stroke-linecap="round" stroke-linejoin="round"/>
<path d="M61.1836 4.18336L66.296 9.29573" stroke="#999999" stroke-width="1.4" stroke-linecap="round" stroke-linejoin="round"/>
<path d="M151.667 5H142.778C141.796 5 141 5.79594 141 6.77778V8.55556C141 9.5374 141.796 10.3333 142.778 10.3333H151.667C152.649 10.3333 153.444 9.5374 153.444 8.55556V6.77778C153.444 5.79594 152.649 5 151.667 5Z" stroke="#999999" stroke-width="1.4" stroke-linecap="round" stroke-linejoin="round"/>
<path d="M153.444 7.66669H154.333C154.805 7.66669 155.257 7.85399 155.59 8.18739C155.924 8.52078 156.111 8.97297 156.111 9.44446C156.111 10.6232 155.643 11.7537 154.809 12.5872C153.976 13.4207 152.845 13.8889 151.667 13.8889H147.222V15.6667" stroke="#999999" stroke-width="1.4" stroke-linecap="round" stroke-linejoin="round"/>
<path d="M148.111 15.6666H146.333C145.842 15.6666 145.444 16.0646 145.444 16.5555V20.1111C145.444 20.602 145.842 21 146.333 21H148.111C148.602 21 149 20.602 149 20.1111V16.5555C149 16.0646 148.602 15.6666 148.111 15.6666Z" stroke="#999999" stroke-width="1.4" stroke-linecap="round" stroke-linejoin="round"/>
</svg>
