<svg width="300" height="25" viewBox="0 0 340 25" fill="none" xmlns="http://www.w3.org/2000/svg">
<path d="M36.3394 21H34.9771V11.9692L32.2451 12.9727V11.7422L36.127 10.2847H36.3394V21ZM46.9961 16.4517C46.9961 18.0386 46.7251 19.2178 46.1831 19.9893C45.6411 20.7607 44.7939 21.1465 43.6416 21.1465C42.5039 21.1465 41.6616 20.7705 41.1147 20.0186C40.5679 19.2617 40.2847 18.1338 40.2651 16.6348V14.8257C40.2651 13.2583 40.5361 12.0938 41.0781 11.332C41.6201 10.5703 42.4697 10.1895 43.627 10.1895C44.7744 10.1895 45.6191 10.5581 46.1611 11.2954C46.7031 12.0278 46.9814 13.1606 46.9961 14.6938V16.4517ZM45.6411 14.5986C45.6411 13.4512 45.48 12.6162 45.1577 12.0938C44.8354 11.5664 44.3252 11.3027 43.627 11.3027C42.9336 11.3027 42.4282 11.564 42.1108 12.0864C41.7935 12.6089 41.6299 13.4121 41.6201 14.4961V16.6641C41.6201 17.8164 41.7861 18.6685 42.1182 19.2202C42.4551 19.7671 42.9629 20.0405 43.6416 20.0405C44.3105 20.0405 44.8062 19.7817 45.1284 19.2642C45.4556 18.7466 45.6265 17.9312 45.6411 16.8179V14.5986Z" fill="#999999"/>
<path d="M162.377 16.0708H157.755V19.8501H163.124V21H156.349V10.3359H163.051V11.4932H157.755V14.9209H162.377V16.0708ZM164.787 21V13.0752H167.877C168.932 13.0752 169.74 13.2607 170.302 13.6318C170.868 13.998 171.151 14.5376 171.151 15.2505C171.151 15.6167 171.042 15.9487 170.822 16.2466C170.602 16.5396 170.277 16.7642 169.848 16.9204C170.326 17.0327 170.709 17.2524 170.998 17.5796C171.291 17.9067 171.437 18.2974 171.437 18.7515C171.437 19.479 171.168 20.0356 170.631 20.4214C170.099 20.8071 169.345 21 168.368 21H164.787ZM166.142 17.521V19.9087H168.383C168.949 19.9087 169.372 19.8037 169.65 19.5938C169.933 19.3838 170.075 19.0884 170.075 18.7075C170.075 17.9165 169.494 17.521 168.332 17.521H166.142ZM166.142 16.437H167.892C169.162 16.437 169.796 16.0659 169.796 15.3237C169.796 14.5815 169.196 14.1982 167.995 14.1738H166.142V16.437ZM179.926 17.1255C179.926 18.3315 179.65 19.3032 179.098 20.0405C178.546 20.7778 177.799 21.1465 176.857 21.1465C175.895 21.1465 175.138 20.8413 174.586 20.231V24.0469H173.231V13.0752H174.469L174.535 13.9541C175.087 13.2705 175.854 12.9287 176.835 12.9287C177.787 12.9287 178.539 13.2876 179.091 14.0054C179.647 14.7231 179.926 15.7217 179.926 17.001V17.1255ZM178.571 16.9717C178.571 16.0781 178.38 15.3726 178 14.855C177.619 14.3374 177.096 14.0786 176.432 14.0786C175.612 14.0786 174.997 14.4424 174.586 15.1699V18.9565C174.992 19.6792 175.612 20.0405 176.447 20.0405C177.096 20.0405 177.611 19.7842 177.992 19.2715C178.378 18.7539 178.571 17.9873 178.571 16.9717ZM181.295 16.9644C181.295 16.188 181.447 15.4897 181.75 14.8696C182.057 14.2495 182.482 13.771 183.024 13.4341C183.571 13.0972 184.193 12.9287 184.892 12.9287C185.971 12.9287 186.842 13.3022 187.506 14.0493C188.175 14.7964 188.51 15.79 188.51 17.0303V17.1255C188.51 17.897 188.361 18.5903 188.063 19.2056C187.77 19.8159 187.348 20.292 186.796 20.6338C186.249 20.9756 185.619 21.1465 184.906 21.1465C183.832 21.1465 182.96 20.7729 182.292 20.0259C181.627 19.2788 181.295 18.29 181.295 17.0596V16.9644ZM182.658 17.1255C182.658 18.0044 182.86 18.71 183.266 19.2422C183.676 19.7744 184.223 20.0405 184.906 20.0405C185.595 20.0405 186.142 19.772 186.547 19.2349C186.952 18.6929 187.155 17.936 187.155 16.9644C187.155 16.0952 186.947 15.3921 186.532 14.855C186.122 14.313 185.575 14.042 184.892 14.042C184.223 14.042 183.683 14.3081 183.273 14.8403C182.863 15.3726 182.658 16.1343 182.658 17.1255ZM196.903 17.1255C196.903 18.3315 196.627 19.3032 196.076 20.0405C195.524 20.7778 194.777 21.1465 193.834 21.1465C192.873 21.1465 192.116 20.8413 191.564 20.231V24.0469H190.209V13.0752H191.447L191.513 13.9541C192.064 13.2705 192.831 12.9287 193.812 12.9287C194.765 12.9287 195.517 13.2876 196.068 14.0054C196.625 14.7231 196.903 15.7217 196.903 17.001V17.1255ZM195.548 16.9717C195.548 16.0781 195.358 15.3726 194.977 14.855C194.596 14.3374 194.074 14.0786 193.41 14.0786C192.589 14.0786 191.974 14.4424 191.564 15.1699V18.9565C191.969 19.6792 192.589 20.0405 193.424 20.0405C194.074 20.0405 194.589 19.7842 194.97 19.2715C195.355 18.7539 195.548 17.9873 195.548 16.9717ZM201.92 21.1465C200.846 21.1465 199.972 20.7949 199.298 20.0918C198.625 19.3838 198.288 18.439 198.288 17.2573V17.0083C198.288 16.2222 198.437 15.5215 198.734 14.9062C199.037 14.2861 199.457 13.8027 199.994 13.4561C200.536 13.1045 201.122 12.9287 201.752 12.9287C202.782 12.9287 203.583 13.2681 204.154 13.9468C204.726 14.6255 205.011 15.5972 205.011 16.8618V17.4258H199.643C199.662 18.207 199.889 18.8394 200.324 19.3228C200.763 19.8013 201.32 20.0405 201.994 20.0405C202.472 20.0405 202.877 19.9429 203.209 19.7476C203.542 19.5522 203.832 19.2935 204.081 18.9712L204.909 19.6157C204.245 20.6362 203.249 21.1465 201.92 21.1465ZM201.752 14.042C201.205 14.042 200.746 14.2422 200.375 14.6426C200.004 15.0381 199.774 15.5947 199.687 16.3125H203.656V16.21C203.617 15.5215 203.432 14.9893 203.1 14.6133C202.768 14.2324 202.318 14.042 201.752 14.042ZM211.149 19.2056L213.844 13.0752H215.536V21H214.181V15.2358L211.618 21H210.68L208.065 15.1113V21H206.71V13.0752H208.468L211.149 19.2056ZM217.36 16.9644C217.36 16.188 217.511 15.4897 217.814 14.8696C218.122 14.2495 218.546 13.771 219.088 13.4341C219.635 13.0972 220.258 12.9287 220.956 12.9287C222.035 12.9287 222.907 13.3022 223.571 14.0493C224.24 14.7964 224.574 15.79 224.574 17.0303V17.1255C224.574 17.897 224.425 18.5903 224.127 19.2056C223.834 19.8159 223.412 20.292 222.86 20.6338C222.313 20.9756 221.684 21.1465 220.971 21.1465C219.896 21.1465 219.025 20.7729 218.356 20.0259C217.692 19.2788 217.36 18.29 217.36 17.0596V16.9644ZM218.722 17.1255C218.722 18.0044 218.925 18.71 219.33 19.2422C219.74 19.7744 220.287 20.0405 220.971 20.0405C221.659 20.0405 222.206 19.772 222.611 19.2349C223.017 18.6929 223.219 17.936 223.219 16.9644C223.219 16.0952 223.012 15.3921 222.597 14.855C222.187 14.313 221.64 14.042 220.956 14.042C220.287 14.042 219.748 14.3081 219.337 14.8403C218.927 15.3726 218.722 16.1343 218.722 17.1255ZM232.748 21H231.393V17.6162H227.753V21H226.391V13.0752H227.753V16.5103H231.393V13.0752H232.748V21ZM240.819 14.1738H238.161V21H236.806V14.1738H234.198V13.0752H240.819V14.1738Z" fill="#999999"/>
<path d="M91.2036 10.3286V11.4785H90.9546C89.8999 11.498 89.0601 11.8105 88.4351 12.416C87.8101 13.0215 87.4487 13.8735 87.3511 14.9722C87.9126 14.3276 88.6792 14.0054 89.6509 14.0054C90.5786 14.0054 91.3184 14.3325 91.8701 14.9868C92.4268 15.6411 92.7051 16.4858 92.7051 17.521C92.7051 18.6196 92.4048 19.4985 91.8042 20.1577C91.2085 20.8169 90.4077 21.1465 89.4019 21.1465C88.3813 21.1465 87.5537 20.7559 86.9189 19.9746C86.2842 19.1885 85.9668 18.1777 85.9668 16.9424V16.4224C85.9668 14.4595 86.3843 12.9604 87.2192 11.9253C88.0591 10.8853 89.3066 10.353 90.9619 10.3286H91.2036ZM89.4238 15.1333C88.96 15.1333 88.5327 15.2725 88.1421 15.5508C87.7515 15.8291 87.4805 16.1782 87.3291 16.5981V17.0962C87.3291 17.9751 87.5269 18.6831 87.9224 19.2202C88.3179 19.7573 88.811 20.0259 89.4019 20.0259C90.0122 20.0259 90.4907 19.8013 90.8374 19.3521C91.189 18.9028 91.3647 18.3145 91.3647 17.5869C91.3647 16.8545 91.1865 16.2637 90.8301 15.8145C90.4785 15.3604 90.0098 15.1333 89.4238 15.1333ZM100.996 16.4517C100.996 18.0386 100.725 19.2178 100.183 19.9893C99.6411 20.7607 98.7939 21.1465 97.6416 21.1465C96.5039 21.1465 95.6616 20.7705 95.1147 20.0186C94.5679 19.2617 94.2847 18.1338 94.2651 16.6348V14.8257C94.2651 13.2583 94.5361 12.0938 95.0781 11.332C95.6201 10.5703 96.4697 10.1895 97.627 10.1895C98.7744 10.1895 99.6191 10.5581 100.161 11.2954C100.703 12.0278 100.981 13.1606 100.996 14.6938V16.4517ZM99.6411 14.5986C99.6411 13.4512 99.48 12.6162 99.1577 12.0938C98.8354 11.5664 98.3252 11.3027 97.627 11.3027C96.9336 11.3027 96.4282 11.564 96.1108 12.0864C95.7935 12.6089 95.6299 13.4121 95.6201 14.4961V16.6641C95.6201 17.8164 95.7861 18.6685 96.1182 19.2202C96.4551 19.7671 96.9629 20.0405 97.6416 20.0405C98.3105 20.0405 98.8062 19.7817 99.1284 19.2642C99.4556 18.7466 99.6265 17.9312 99.6411 16.8179V14.5986ZM111.155 19.2056L113.85 13.0752H115.542V21H114.187V15.2358L111.624 21H110.686L108.071 15.1113V21H106.716V13.0752H108.474L111.155 19.2056ZM121.702 16.1147H117.314V15.3237L119.512 13.2583C120.044 12.7603 120.31 12.3428 120.31 12.0059C120.31 11.7666 120.232 11.5737 120.076 11.4272C119.919 11.2759 119.695 11.2002 119.402 11.2002C119.036 11.2002 118.765 11.293 118.589 11.4785C118.418 11.6641 118.333 11.896 118.333 12.1743H117.183C117.183 11.6177 117.385 11.1587 117.791 10.7974C118.201 10.436 118.728 10.2554 119.373 10.2554C120.017 10.2554 120.527 10.4116 120.903 10.7241C121.279 11.0317 121.467 11.4541 121.467 11.9912C121.467 12.499 121.206 13.0142 120.684 13.5366L120.068 14.1152L118.779 15.1772H121.702V16.1147Z" fill="#999999"/>
<path d="M23.302 10.1267C23.046 9.88306 22.736 9.71012 22.4 9.59855V7.23141C22.4 6.00041 21.324 5 20 5H13.6C12.984 5 12.426 5.22314 12 5.58017C11.574 5.22314 11.016 5 10.4 5H4C2.676 5 1.6 6.00041 1.6 7.23141V9.60041C0.67 9.90723 0 10.7254 0 11.6942V20.6198C0 21.0308 0.358 21.3636 0.8 21.3636H4C4.442 21.3636 4.8 21.0308 4.8 20.6198V19.876H19.2V20.6198C19.2 21.0308 19.558 21.3636 20 21.3636H23.2C23.642 21.3636 24 21.0308 24 20.6198V11.6942C24 11.0917 23.746 10.5283 23.302 10.1267ZM13.6 6.4876H20C20.442 6.4876 20.8 6.82045 20.8 7.23141V9.59112C20.774 9.60041 20.748 9.61343 20.722 9.62273C20.678 9.63946 20.634 9.65806 20.592 9.67665C20.502 9.7157 20.418 9.75847 20.334 9.80682C20.294 9.82913 20.256 9.85145 20.218 9.87562C20.124 9.93884 20.034 10.0076 19.95 10.082C19.932 10.0969 19.912 10.1099 19.896 10.1267C19.798 10.2196 19.71 10.32 19.63 10.426C19.608 10.4558 19.59 10.4874 19.57 10.519C19.516 10.6008 19.466 10.6826 19.422 10.7719C19.402 10.8128 19.384 10.8537 19.366 10.8965C19.33 10.9839 19.3 11.0731 19.276 11.1643C19.266 11.2052 19.252 11.2442 19.244 11.287C19.218 11.4171 19.2 11.5548 19.2 11.6942V12.438H12.8V7.23141C12.8 6.82045 13.158 6.4876 13.6 6.4876ZM4.8 13.9256H12H19.2V14.6694H4.8V13.9256ZM3.2 7.23141C3.2 6.82045 3.558 6.4876 4 6.4876H10.4C10.842 6.4876 11.2 6.82045 11.2 7.23141V12.438H4.8V11.6942C4.8 11.0917 4.546 10.5283 4.102 10.1267C3.982 10.0114 3.848 9.91281 3.706 9.82541C3.66 9.79752 3.61 9.77707 3.562 9.75289C3.462 9.70083 3.362 9.65248 3.256 9.61343C3.236 9.60599 3.22 9.59483 3.2 9.5874V7.23141ZM3.2 19.876H1.6V11.6942C1.6 11.2833 1.958 10.9504 2.4 10.9504C2.614 10.9504 2.81 11.0267 2.97 11.1773C3.118 11.313 3.2 11.4952 3.2 11.6942V13.1818V15.4132V19.1322V19.876ZM4.8 18.3884V16.157H19.2V18.3884H4.8ZM22.4 19.876H20.8V19.1322V15.4132V13.1818V11.6942C20.8 11.2833 21.158 10.9504 21.6 10.9504C21.814 10.9504 22.01 11.0267 22.17 11.1773C22.318 11.3112 22.4 11.4952 22.4 11.6942V19.876Z" fill="#999999"/>
<path d="M60.5017 1H75.4983C76.8821 1 78 2.11793 78 3.5017V18.4983C78 19.8821 76.8821 21 75.4983 21H60.5017C59.1179 21 58 19.8821 58 18.4983V3.5017C58 2.11793 59.1179 1 60.5017 1Z" stroke="#999999" stroke-width="1.4" stroke-miterlimit="7.3333" stroke-linecap="round" stroke-linejoin="round"/>
<path d="M71.4082 17.8164H74.8164V14.4081" stroke="#999999" stroke-width="1.4" stroke-linecap="round" stroke-linejoin="round"/>
<path d="M69.7046 12.704L74.817 17.8164" stroke="#999999" stroke-width="1.4" stroke-linecap="round" stroke-linejoin="round"/>
<path d="M64.5918 4.18336H61.1836V7.59161" stroke="#999999" stroke-width="1.4" stroke-linecap="round" stroke-linejoin="round"/>
<path d="M61.1836 4.18336L66.296 9.29573" stroke="#999999" stroke-width="1.4" stroke-linecap="round" stroke-linejoin="round"/>
<path d="M143.667 5H134.778C133.796 5 133 5.79594 133 6.77778V8.55556C133 9.5374 133.796 10.3333 134.778 10.3333H143.667C144.649 10.3333 145.444 9.5374 145.444 8.55556V6.77778C145.444 5.79594 144.649 5 143.667 5Z" stroke="#999999" stroke-width="1.4" stroke-linecap="round" stroke-linejoin="round"/>
<path d="M145.445 7.66669H146.333C146.805 7.66669 147.257 7.85399 147.59 8.18739C147.924 8.52078 148.111 8.97297 148.111 9.44446C148.111 10.6232 147.643 11.7537 146.809 12.5872C145.976 13.4207 144.845 13.8889 143.667 13.8889H139.222V15.6667" stroke="#999999" stroke-width="1.4" stroke-linecap="round" stroke-linejoin="round"/>
<path d="M140.111 15.6667H138.333C137.842 15.6667 137.444 16.0646 137.444 16.5555V20.1111C137.444 20.602 137.842 21 138.333 21H140.111C140.602 21 141 20.602 141 20.1111V16.5555C141 16.0646 140.602 15.6667 140.111 15.6667Z" stroke="#999999" stroke-width="1.4" stroke-linecap="round" stroke-linejoin="round"/>
<path d="M310.271 22H309.182V14.7754L306.996 15.5781V14.5938L310.102 13.4277H310.271V22ZM319.037 22H313.447V21.2207L316.4 17.9395C316.838 17.4434 317.139 17.041 317.303 16.7324C317.471 16.4199 317.555 16.0977 317.555 15.7656C317.555 15.3203 317.42 14.9551 317.15 14.6699C316.881 14.3848 316.521 14.2422 316.072 14.2422C315.533 14.2422 315.113 14.3965 314.812 14.7051C314.516 15.0098 314.367 15.4355 314.367 15.9824H313.283C313.283 15.1973 313.535 14.5625 314.039 14.0781C314.547 13.5938 315.225 13.3516 316.072 13.3516C316.865 13.3516 317.492 13.5605 317.953 13.9785C318.414 14.3926 318.645 14.9453 318.645 15.6367C318.645 16.4766 318.109 17.4766 317.039 18.6367L314.754 21.1152H319.037V22ZM324.34 18.25C324.113 18.5195 323.842 18.7363 323.525 18.9004C323.213 19.0645 322.869 19.1465 322.494 19.1465C322.002 19.1465 321.572 19.0254 321.205 18.7832C320.842 18.541 320.561 18.2012 320.361 17.7637C320.162 17.3223 320.062 16.8359 320.062 16.3047C320.062 15.7344 320.17 15.2207 320.385 14.7637C320.604 14.3066 320.912 13.957 321.311 13.7148C321.709 13.4727 322.174 13.3516 322.705 13.3516C323.549 13.3516 324.213 13.668 324.697 14.3008C325.186 14.9297 325.43 15.7891 325.43 16.8789V17.1953C325.43 18.8555 325.102 20.0684 324.445 20.834C323.789 21.5957 322.799 21.9863 321.475 22.0059H321.264V21.0918H321.492C322.387 21.0762 323.074 20.8438 323.555 20.3945C324.035 19.9414 324.297 19.2266 324.34 18.25ZM322.67 18.25C323.033 18.25 323.367 18.1387 323.672 17.916C323.98 17.6934 324.205 17.418 324.346 17.0898V16.6562C324.346 15.9453 324.191 15.3672 323.883 14.9219C323.574 14.4766 323.184 14.2539 322.711 14.2539C322.234 14.2539 321.852 14.4375 321.562 14.8047C321.273 15.168 321.129 15.6484 321.129 16.2461C321.129 16.8281 321.268 17.3086 321.545 17.6875C321.826 18.0625 322.201 18.25 322.67 18.25ZM332.098 15.6953C332.098 16.1211 331.984 16.5 331.758 16.832C331.535 17.1641 331.232 17.4238 330.85 17.6113C331.295 17.8027 331.646 18.082 331.904 18.4492C332.166 18.8164 332.297 19.2324 332.297 19.6973C332.297 20.4355 332.047 21.0234 331.547 21.4609C331.051 21.8984 330.396 22.1172 329.584 22.1172C328.764 22.1172 328.105 21.8984 327.609 21.4609C327.117 21.0195 326.871 20.4316 326.871 19.6973C326.871 19.2363 326.996 18.8203 327.246 18.4492C327.5 18.0781 327.85 17.7969 328.295 17.6055C327.916 17.418 327.617 17.1582 327.398 16.8262C327.18 16.4941 327.07 16.1172 327.07 15.6953C327.07 14.9766 327.301 14.4062 327.762 13.9844C328.223 13.5625 328.83 13.3516 329.584 13.3516C330.334 13.3516 330.939 13.5625 331.4 13.9844C331.865 14.4062 332.098 14.9766 332.098 15.6953ZM331.213 19.6738C331.213 19.1973 331.061 18.8086 330.756 18.5078C330.455 18.207 330.061 18.0566 329.572 18.0566C329.084 18.0566 328.691 18.2051 328.395 18.502C328.102 18.7988 327.955 19.1895 327.955 19.6738C327.955 20.1582 328.098 20.5391 328.383 20.8164C328.672 21.0938 329.072 21.2324 329.584 21.2324C330.092 21.2324 330.49 21.0938 330.779 20.8164C331.068 20.5352 331.213 20.1543 331.213 19.6738ZM329.584 14.2422C329.158 14.2422 328.812 14.375 328.547 14.6406C328.285 14.9023 328.154 15.2598 328.154 15.7129C328.154 16.1465 328.283 16.498 328.541 16.7676C328.803 17.0332 329.15 17.166 329.584 17.166C330.018 17.166 330.363 17.0332 330.621 16.7676C330.883 16.498 331.014 16.1465 331.014 15.7129C331.014 15.2793 330.879 14.9258 330.609 14.6523C330.34 14.3789 329.998 14.2422 329.584 14.2422ZM335.238 17.207H336.053C336.564 17.1992 336.967 17.0645 337.26 16.8027C337.553 16.541 337.699 16.1875 337.699 15.7422C337.699 14.7422 337.201 14.2422 336.205 14.2422C335.736 14.2422 335.361 14.377 335.08 14.6465C334.803 14.9121 334.664 15.2656 334.664 15.707H333.58C333.58 15.0312 333.826 14.4707 334.318 14.0254C334.814 13.5762 335.443 13.3516 336.205 13.3516C337.01 13.3516 337.641 13.5645 338.098 13.9902C338.555 14.416 338.783 15.0078 338.783 15.7656C338.783 16.1367 338.662 16.4961 338.42 16.8438C338.182 17.1914 337.855 17.4512 337.441 17.623C337.91 17.7715 338.271 18.0176 338.525 18.3613C338.783 18.7051 338.912 19.125 338.912 19.6211C338.912 20.3867 338.662 20.9941 338.162 21.4434C337.662 21.8926 337.012 22.1172 336.211 22.1172C335.41 22.1172 334.758 21.9004 334.254 21.4668C333.754 21.0332 333.504 20.4609 333.504 19.75H334.594C334.594 20.1992 334.74 20.5586 335.033 20.8281C335.326 21.0977 335.719 21.2324 336.211 21.2324C336.734 21.2324 337.135 21.0957 337.412 20.8223C337.689 20.5488 337.828 20.1562 337.828 19.6445C337.828 19.1484 337.676 18.7676 337.371 18.502C337.066 18.2363 336.627 18.0996 336.053 18.0918H335.238V17.207Z" fill="#999999"/>
<path d="M294.001 19.4C294.664 19.4 295.201 18.8627 295.201 18.2C295.201 17.5372 294.664 17 294.001 17C293.338 17 292.801 17.5372 292.801 18.2C292.801 18.8627 293.338 19.4 294.001 19.4Z" stroke="#999999" stroke-linecap="round" stroke-linejoin="round"/>
<path d="M300 18.2C298.4 21.0002 296.4 22.4 294 22.4C291.6 22.4 289.6 21.0002 288 18.2C289.6 15.3998 291.6 14 294 14C296.4 14 298.4 15.3998 300 18.2Z" stroke="#999999" stroke-linecap="round" stroke-linejoin="round"/>
</svg>
