<svg width="26" height="26" viewBox="0 0 26 26" fill="none" xmlns="http://www.w3.org/2000/svg">
<path d="M18.4173 8.66667V5.41667C18.4173 5.12935 18.3032 4.8538 18.1 4.65064C17.8969 4.44747 17.6213 4.33334 17.334 4.33334H6.50065C5.92602 4.33334 5.37491 4.56161 4.96859 4.96794C4.56226 5.37427 4.33398 5.92537 4.33398 6.5M4.33398 6.5C4.33398 7.07464 4.56226 7.62574 4.96859 8.03207C5.37491 8.4384 5.92602 8.66667 6.50065 8.66667H19.5006C19.788 8.66667 20.0635 8.78081 20.2667 8.98397C20.4698 9.18713 20.584 9.46268 20.584 9.75V13M4.33398 6.5V19.5C4.33398 20.0746 4.56226 20.6257 4.96859 21.0321C5.37491 21.4384 5.92602 21.6667 6.50065 21.6667H19.5006C19.788 21.6667 20.0635 21.5525 20.2667 21.3494C20.4698 21.1462 20.584 20.8707 20.584 20.5833V17.3333" stroke="#161A1D" stroke-width="2" stroke-linecap="round" stroke-linejoin="round"/>
<path d="M21.666 13V17.3333H17.3327C16.758 17.3333 16.2069 17.1051 15.8006 16.6987C15.3943 16.2924 15.166 15.7413 15.166 15.1667C15.166 14.592 15.3943 14.0409 15.8006 13.6346C16.2069 13.2283 16.758 13 17.3327 13H21.666Z" stroke="#161A1D" stroke-width="2" stroke-linecap="round" stroke-linejoin="round"/>
</svg>
