<svg width="250" height="104" viewBox="0 0 250 104" fill="none" xmlns="http://www.w3.org/2000/svg">
<path d="M0 15C0 6.71573 6.71573 0 15 0H250V104H0V15Z" fill="#EEEEEE"/>
<path d="M87.4023 47H84.4492V32.3281H76.9375V47H73.9844V29.9375H87.4023V47ZM101.816 40.7891C101.816 42.75 101.371 44.3164 100.48 45.4883C99.5898 46.6523 98.3945 47.2344 96.8945 47.2344C95.5039 47.2344 94.3906 46.7773 93.5547 45.8633V51.875H90.707V34.3203H93.332L93.4492 35.6094C94.2852 34.5938 95.4219 34.0859 96.8594 34.0859C98.4062 34.0859 99.6172 34.6641 100.492 35.8203C101.375 36.9688 101.816 38.5664 101.816 40.6133V40.7891ZM98.9805 40.543C98.9805 39.2773 98.7266 38.2734 98.2188 37.5312C97.7188 36.7891 97 36.418 96.0625 36.418C94.8984 36.418 94.0625 36.8984 93.5547 37.8594V43.4844C94.0703 44.4688 94.9141 44.9609 96.0859 44.9609C96.9922 44.9609 97.6992 44.5977 98.207 43.8711C98.7227 43.1367 98.9805 42.0273 98.9805 40.543ZM103.703 40.543C103.703 39.3008 103.949 38.1836 104.441 37.1914C104.934 36.1914 105.625 35.4258 106.516 34.8945C107.406 34.3555 108.43 34.0859 109.586 34.0859C111.297 34.0859 112.684 34.6367 113.746 35.7383C114.816 36.8398 115.395 38.3008 115.48 40.1211L115.492 40.7891C115.492 42.0391 115.25 43.1562 114.766 44.1406C114.289 45.125 113.602 45.8867 112.703 46.4258C111.812 46.9648 110.781 47.2344 109.609 47.2344C107.82 47.2344 106.387 46.6406 105.309 45.4531C104.238 44.2578 103.703 42.668 103.703 40.6836V40.543ZM106.551 40.7891C106.551 42.0938 106.82 43.1172 107.359 43.8594C107.898 44.5938 108.648 44.9609 109.609 44.9609C110.57 44.9609 111.316 44.5859 111.848 43.8359C112.387 43.0859 112.656 41.9883 112.656 40.543C112.656 39.2617 112.379 38.2461 111.824 37.4961C111.277 36.7461 110.531 36.3711 109.586 36.3711C108.656 36.3711 107.918 36.7422 107.371 37.4844C106.824 38.2188 106.551 39.3203 106.551 40.7891ZM117.109 44.7266C117.898 43.8438 118.426 43.0078 118.691 42.2188C118.965 41.4219 119.129 40.4062 119.184 39.1719L119.348 34.3203H128.148V44.7266H129.906V50.7734H127.07V47H118.938V50.7734H116.055L116.066 44.7266H117.109ZM120.449 44.7266H125.312V36.7695H122.113L122.031 39.1953C121.922 41.5234 121.395 43.3672 120.449 44.7266ZM139.516 47C139.391 46.7578 139.281 46.3633 139.188 45.8164C138.281 46.7617 137.172 47.2344 135.859 47.2344C134.586 47.2344 133.547 46.8711 132.742 46.1445C131.938 45.418 131.535 44.5195 131.535 43.4492C131.535 42.0977 132.035 41.0625 133.035 40.3438C134.043 39.6172 135.48 39.2539 137.348 39.2539H139.094V38.4219C139.094 37.7656 138.91 37.2422 138.543 36.8516C138.176 36.4531 137.617 36.2539 136.867 36.2539C136.219 36.2539 135.688 36.418 135.273 36.7461C134.859 37.0664 134.652 37.4766 134.652 37.9766H131.805C131.805 37.2812 132.035 36.6328 132.496 36.0312C132.957 35.4219 133.582 34.9453 134.371 34.6016C135.168 34.2578 136.055 34.0859 137.031 34.0859C138.516 34.0859 139.699 34.4609 140.582 35.2109C141.465 35.9531 141.918 37 141.941 38.3516V44.0703C141.941 45.2109 142.102 46.1211 142.422 46.8008V47H139.516ZM136.387 44.9492C136.949 44.9492 137.477 44.8125 137.969 44.5391C138.469 44.2656 138.844 43.8984 139.094 43.4375V41.0469H137.559C136.504 41.0469 135.711 41.2305 135.18 41.5977C134.648 41.9648 134.383 42.4844 134.383 43.1562C134.383 43.7031 134.562 44.1406 134.922 44.4688C135.289 44.7891 135.777 44.9492 136.387 44.9492ZM156.086 41.9023H154.574V47H151.727V41.9023H150.227L147.309 47H143.816L148.023 40.4023L144.039 34.3203H147.52L150.391 39.3008H151.727V34.3203H154.574V39.3008H155.922L158.805 34.3203H162.285L158.312 40.3672L162.543 47H159.004L156.086 41.9023ZM171.883 47C171.758 46.7578 171.648 46.3633 171.555 45.8164C170.648 46.7617 169.539 47.2344 168.227 47.2344C166.953 47.2344 165.914 46.8711 165.109 46.1445C164.305 45.418 163.902 44.5195 163.902 43.4492C163.902 42.0977 164.402 41.0625 165.402 40.3438C166.41 39.6172 167.848 39.2539 169.715 39.2539H171.461V38.4219C171.461 37.7656 171.277 37.2422 170.91 36.8516C170.543 36.4531 169.984 36.2539 169.234 36.2539C168.586 36.2539 168.055 36.418 167.641 36.7461C167.227 37.0664 167.02 37.4766 167.02 37.9766H164.172C164.172 37.2812 164.402 36.6328 164.863 36.0312C165.324 35.4219 165.949 34.9453 166.738 34.6016C167.535 34.2578 168.422 34.0859 169.398 34.0859C170.883 34.0859 172.066 34.4609 172.949 35.2109C173.832 35.9531 174.285 37 174.309 38.3516V44.0703C174.309 45.2109 174.469 46.1211 174.789 46.8008V47H171.883ZM168.754 44.9492C169.316 44.9492 169.844 44.8125 170.336 44.5391C170.836 44.2656 171.211 43.8984 171.461 43.4375V41.0469H169.926C168.871 41.0469 168.078 41.2305 167.547 41.5977C167.016 41.9648 166.75 42.4844 166.75 43.1562C166.75 43.7031 166.93 44.1406 167.289 44.4688C167.656 44.7891 168.145 44.9492 168.754 44.9492Z" fill="#999999"/>
<path d="M58.3613 60.6602V64H57.2363V55.4688H60.3828C61.3164 55.4688 62.0469 55.707 62.5742 56.1836C63.1055 56.6602 63.3711 57.291 63.3711 58.0762C63.3711 58.9043 63.1113 59.543 62.5918 59.9922C62.0762 60.4375 61.3359 60.6602 60.3711 60.6602H58.3613ZM58.3613 59.7402H60.3828C60.9844 59.7402 61.4453 59.5996 61.7656 59.3184C62.0859 59.0332 62.2461 58.623 62.2461 58.0879C62.2461 57.5801 62.0859 57.1738 61.7656 56.8691C61.4453 56.5645 61.0059 56.4062 60.4473 56.3945H58.3613V59.7402ZM68.4805 64C68.418 63.875 68.3672 63.6523 68.3281 63.332C67.8242 63.8555 67.2227 64.1172 66.5234 64.1172C65.8984 64.1172 65.3848 63.9414 64.9824 63.5898C64.584 63.2344 64.3848 62.7852 64.3848 62.2422C64.3848 61.582 64.6348 61.0703 65.1348 60.707C65.6387 60.3398 66.3457 60.1562 67.2559 60.1562H68.3105V59.6582C68.3105 59.2793 68.1973 58.9785 67.9707 58.7559C67.7441 58.5293 67.4102 58.416 66.9688 58.416C66.582 58.416 66.2578 58.5137 65.9961 58.709C65.7344 58.9043 65.6035 59.1406 65.6035 59.418H64.5137C64.5137 59.1016 64.625 58.7969 64.8477 58.5039C65.0742 58.207 65.3789 57.9727 65.7617 57.8008C66.1484 57.6289 66.5723 57.543 67.0332 57.543C67.7637 57.543 68.3359 57.7266 68.75 58.0938C69.1641 58.457 69.3789 58.959 69.3945 59.5996V62.5176C69.3945 63.0996 69.4688 63.5625 69.6172 63.9062V64H68.4805ZM66.6816 63.1738C67.0215 63.1738 67.3438 63.0859 67.6484 62.9102C67.9531 62.7344 68.1738 62.5059 68.3105 62.2246V60.9238H67.4609C66.1328 60.9238 65.4688 61.3125 65.4688 62.0898C65.4688 62.4297 65.582 62.6953 65.8086 62.8867C66.0352 63.0781 66.3262 63.1738 66.6816 63.1738ZM74.5801 59.3945C74.5801 59.0977 74.4668 58.8633 74.2402 58.6914C74.0137 58.5156 73.7031 58.4277 73.3086 58.4277C72.9258 58.4277 72.6055 58.5273 72.3477 58.7266C72.0938 58.9258 71.9668 59.1602 71.9668 59.4297H70.8887C70.8887 58.8789 71.1191 58.4277 71.5801 58.0762C72.041 57.7246 72.6172 57.5488 73.3086 57.5488C74.0508 57.5488 74.6289 57.709 75.043 58.0293C75.457 58.3457 75.6641 58.7988 75.6641 59.3887C75.6641 59.6738 75.5781 59.9355 75.4062 60.1738C75.2344 60.4121 74.9902 60.6016 74.6738 60.7422C75.4121 60.9922 75.7812 61.4844 75.7812 62.2188C75.7812 62.8008 75.5566 63.2617 75.1074 63.6016C74.6582 63.9414 74.0586 64.1113 73.3086 64.1113C72.5781 64.1113 71.9746 63.9336 71.498 63.5781C71.0254 63.2188 70.7891 62.7344 70.7891 62.125H71.8672C71.8672 62.4336 72.0039 62.6992 72.2773 62.9219C72.5547 63.1406 72.8984 63.25 73.3086 63.25C73.7227 63.25 74.0566 63.1543 74.3105 62.9629C74.5645 62.7715 74.6914 62.5234 74.6914 62.2188C74.6914 61.8633 74.584 61.6094 74.3691 61.457C74.1582 61.3008 73.8281 61.2227 73.3789 61.2227H72.2949V60.3086H73.4727C74.2109 60.2891 74.5801 59.9844 74.5801 59.3945ZM80.8379 62.5645L82.9941 57.6602H84.3477V64H83.2637V59.3887L81.2129 64H80.4629L78.3711 59.2891V64H77.2871V57.6602H78.6934L80.8379 62.5645ZM88.7246 64.1172C87.8652 64.1172 87.166 63.8359 86.627 63.2734C86.0879 62.707 85.8184 61.9512 85.8184 61.0059V60.8066C85.8184 60.1777 85.9375 59.6172 86.1758 59.125C86.418 58.6289 86.7539 58.2422 87.1836 57.9648C87.6172 57.6836 88.0859 57.543 88.5898 57.543C89.4141 57.543 90.0547 57.8145 90.5117 58.3574C90.9688 58.9004 91.1973 59.6777 91.1973 60.6895V61.1406H86.9023C86.918 61.7656 87.0996 62.2715 87.4473 62.6582C87.7988 63.041 88.2441 63.2324 88.7832 63.2324C89.166 63.2324 89.4902 63.1543 89.7559 62.998C90.0215 62.8418 90.2539 62.6348 90.4531 62.377L91.1152 62.8926C90.584 63.709 89.7871 64.1172 88.7246 64.1172ZM88.5898 58.4336C88.1523 58.4336 87.7852 58.5938 87.4883 58.9141C87.1914 59.2305 87.0078 59.6758 86.9375 60.25H90.1133V60.168C90.082 59.6172 89.9336 59.1914 89.668 58.8906C89.4023 58.5859 89.043 58.4336 88.5898 58.4336ZM95 63.2324C95.3867 63.2324 95.7246 63.1152 96.0137 62.8809C96.3027 62.6465 96.4629 62.3535 96.4941 62.002H97.5195C97.5 62.3652 97.375 62.7109 97.1445 63.0391C96.9141 63.3672 96.6055 63.6289 96.2188 63.8242C95.8359 64.0195 95.4297 64.1172 95 64.1172C94.1367 64.1172 93.4492 63.8301 92.9375 63.2559C92.4297 62.6777 92.1758 61.8887 92.1758 60.8887V60.707C92.1758 60.0898 92.2891 59.541 92.5156 59.0605C92.7422 58.5801 93.0664 58.207 93.4883 57.9414C93.9141 57.6758 94.416 57.543 94.9941 57.543C95.7051 57.543 96.2949 57.7559 96.7637 58.1816C97.2363 58.6074 97.4883 59.1602 97.5195 59.8398H96.4941C96.4629 59.4297 96.3066 59.0938 96.0254 58.832C95.748 58.5664 95.4043 58.4336 94.9941 58.4336C94.4434 58.4336 94.0156 58.6328 93.7109 59.0312C93.4102 59.4258 93.2598 59.998 93.2598 60.748V60.9531C93.2598 61.6836 93.4102 62.2461 93.7109 62.6406C94.0117 63.0352 94.4414 63.2324 95 63.2324ZM103.449 58.5391H101.322V64H100.238V58.5391H98.1523V57.6602H103.449V58.5391ZM108.605 57.6602H109.689V64H108.605V59.377L105.682 64H104.598V57.6602H105.682V62.2891L108.605 57.6602ZM116.141 58.5391H114.014V64H112.93V58.5391H110.844V57.6602H116.141V58.5391ZM118.379 59.8457H120.025C120.744 59.8535 121.312 60.041 121.73 60.4082C122.148 60.7754 122.357 61.2734 122.357 61.9023C122.357 62.5352 122.143 63.043 121.713 63.4258C121.283 63.8086 120.705 64 119.979 64H117.295V57.6602H118.379V59.8457ZM118.379 60.7305V63.1152H119.99C120.396 63.1152 120.711 63.0117 120.934 62.8047C121.156 62.5938 121.268 62.3066 121.268 61.9434C121.268 61.5918 121.158 61.3047 120.939 61.082C120.725 60.8555 120.422 60.7383 120.031 60.7305H118.379ZM126.4 60.7715C126.4 60.1504 126.521 59.5918 126.764 59.0957C127.01 58.5996 127.35 58.2168 127.783 57.9473C128.221 57.6777 128.719 57.543 129.277 57.543C130.141 57.543 130.838 57.8418 131.369 58.4395C131.904 59.0371 132.172 59.832 132.172 60.8242V60.9004C132.172 61.5176 132.053 62.0723 131.814 62.5645C131.58 63.0527 131.242 63.4336 130.801 63.707C130.363 63.9805 129.859 64.1172 129.289 64.1172C128.43 64.1172 127.732 63.8184 127.197 63.2207C126.666 62.623 126.4 61.832 126.4 60.8477V60.7715ZM127.49 60.9004C127.49 61.6035 127.652 62.168 127.977 62.5938C128.305 63.0195 128.742 63.2324 129.289 63.2324C129.84 63.2324 130.277 63.0176 130.602 62.5879C130.926 62.1543 131.088 61.5488 131.088 60.7715C131.088 60.0762 130.922 59.5137 130.59 59.084C130.262 58.6504 129.824 58.4336 129.277 58.4336C128.742 58.4336 128.311 58.6465 127.982 59.0723C127.654 59.498 127.49 60.1074 127.49 60.9004ZM136.314 58.0234C137.111 58.0234 137.748 58.291 138.225 58.8262C138.705 59.3574 138.945 60.0586 138.945 60.9297V61.0293C138.945 61.627 138.83 62.1621 138.6 62.6348C138.369 63.1035 138.037 63.4688 137.604 63.7305C137.174 63.9883 136.678 64.1172 136.115 64.1172C135.264 64.1172 134.578 63.834 134.059 63.2676C133.539 62.6973 133.279 61.9336 133.279 60.9766V60.4492C133.279 59.1172 133.525 58.0586 134.018 57.2734C134.514 56.4883 135.244 56.0098 136.209 55.8379C136.756 55.7402 137.125 55.6211 137.316 55.4805C137.508 55.3398 137.604 55.1465 137.604 54.9004H138.494C138.494 55.3887 138.383 55.7695 138.16 56.043C137.941 56.3164 137.59 56.5098 137.105 56.623L136.297 56.8047C135.652 56.957 135.168 57.2148 134.844 57.5781C134.523 57.9375 134.314 58.418 134.217 59.0195C134.791 58.3555 135.49 58.0234 136.314 58.0234ZM136.104 58.9141C135.572 58.9141 135.15 59.0938 134.838 59.4531C134.525 59.8086 134.369 60.3027 134.369 60.9355V61.0293C134.369 61.709 134.525 62.248 134.838 62.6465C135.154 63.041 135.58 63.2383 136.115 63.2383C136.654 63.2383 137.08 63.0391 137.393 62.6406C137.705 62.2422 137.861 61.6602 137.861 60.8945C137.861 60.2969 137.703 59.8184 137.387 59.459C137.074 59.0957 136.646 58.9141 136.104 58.9141ZM139.52 57.6602H142.484V59.8457H144.131C144.85 59.8535 145.418 60.041 145.836 60.4082C146.254 60.7754 146.463 61.2734 146.463 61.9023C146.463 62.5352 146.248 63.043 145.818 63.4258C145.389 63.8086 144.811 64 144.084 64H141.4V58.5508H139.52V57.6602ZM142.484 60.7305V63.1152H144.096C144.502 63.1152 144.816 63.0117 145.039 62.8047C145.262 62.5938 145.373 62.3066 145.373 61.9434C145.373 61.5918 145.264 61.3047 145.045 61.082C144.83 60.8555 144.527 60.7383 144.137 60.7305H142.484ZM152.463 57.6602V64H151.373V61.5332H149.738L148.244 64H147.072L148.666 61.3691C148.26 61.2207 147.947 60.9922 147.729 60.6836C147.514 60.3711 147.406 60.0078 147.406 59.5938C147.406 59.0156 147.623 58.5508 148.057 58.1992C148.49 57.8438 149.07 57.6641 149.797 57.6602H152.463ZM148.496 59.6055C148.496 59.9141 148.602 60.1641 148.812 60.3555C149.023 60.543 149.303 60.6387 149.65 60.6426H151.373V58.5391H149.814C149.412 58.5391 149.092 58.6387 148.854 58.8379C148.615 59.0332 148.496 59.2891 148.496 59.6055ZM154.303 64V57.6602H156.775C157.619 57.6602 158.266 57.8086 158.715 58.1055C159.168 58.3984 159.395 58.8301 159.395 59.4004C159.395 59.6934 159.307 59.959 159.131 60.1973C158.955 60.4316 158.695 60.6113 158.352 60.7363C158.734 60.8262 159.041 61.002 159.271 61.2637C159.506 61.5254 159.623 61.8379 159.623 62.2012C159.623 62.7832 159.408 63.2285 158.979 63.5371C158.553 63.8457 157.949 64 157.168 64H154.303ZM155.387 61.2168V63.127H157.18C157.633 63.127 157.971 63.043 158.193 62.875C158.42 62.707 158.533 62.4707 158.533 62.166C158.533 61.5332 158.068 61.2168 157.139 61.2168H155.387ZM155.387 60.3496H156.787C157.803 60.3496 158.311 60.0527 158.311 59.459C158.311 58.8652 157.83 58.5586 156.869 58.5391H155.387V60.3496ZM166.256 57.6602V64H165.166V58.5566H163.01L162.881 60.9297C162.811 62.0195 162.627 62.7988 162.33 63.2676C162.037 63.7363 161.57 63.9805 160.93 64H160.496V63.0449L160.807 63.0215C161.158 62.9824 161.41 62.7793 161.562 62.4121C161.715 62.0449 161.812 61.3652 161.855 60.373L161.973 57.6602H166.256ZM170.627 64.1172C169.768 64.1172 169.068 63.8359 168.529 63.2734C167.99 62.707 167.721 61.9512 167.721 61.0059V60.8066C167.721 60.1777 167.84 59.6172 168.078 59.125C168.32 58.6289 168.656 58.2422 169.086 57.9648C169.52 57.6836 169.988 57.543 170.492 57.543C171.316 57.543 171.957 57.8145 172.414 58.3574C172.871 58.9004 173.1 59.6777 173.1 60.6895V61.1406H168.805C168.82 61.7656 169.002 62.2715 169.35 62.6582C169.701 63.041 170.146 63.2324 170.686 63.2324C171.068 63.2324 171.393 63.1543 171.658 62.998C171.924 62.8418 172.156 62.6348 172.355 62.377L173.018 62.8926C172.486 63.709 171.689 64.1172 170.627 64.1172ZM170.492 58.4336C170.055 58.4336 169.688 58.5938 169.391 58.9141C169.094 59.2305 168.91 59.6758 168.84 60.25H172.016V60.168C171.984 59.6172 171.836 59.1914 171.57 58.8906C171.305 58.5859 170.945 58.4336 170.492 58.4336ZM179.539 64H178.455V61.293H175.543V64H174.453V57.6602H175.543V60.4082H178.455V57.6602H179.539V64ZM185.387 57.6602H186.471V64H185.387V59.377L182.463 64H181.379V57.6602H182.463V62.2891L185.387 57.6602ZM190.842 64.1172C189.982 64.1172 189.283 63.8359 188.744 63.2734C188.205 62.707 187.936 61.9512 187.936 61.0059V60.8066C187.936 60.1777 188.055 59.6172 188.293 59.125C188.535 58.6289 188.871 58.2422 189.301 57.9648C189.734 57.6836 190.203 57.543 190.707 57.543C191.531 57.543 192.172 57.8145 192.629 58.3574C193.086 58.9004 193.314 59.6777 193.314 60.6895V61.1406H189.02C189.035 61.7656 189.217 62.2715 189.564 62.6582C189.916 63.041 190.361 63.2324 190.9 63.2324C191.283 63.2324 191.607 63.1543 191.873 62.998C192.139 62.8418 192.371 62.6348 192.57 62.377L193.232 62.8926C192.701 63.709 191.904 64.1172 190.842 64.1172ZM190.707 58.4336C190.27 58.4336 189.902 58.5938 189.605 58.9141C189.309 59.2305 189.125 59.6758 189.055 60.25H192.23V60.168C192.199 59.6172 192.051 59.1914 191.785 58.8906C191.52 58.5859 191.16 58.4336 190.707 58.4336ZM95.9785 74.7715C95.9785 74.1504 96.0996 73.5918 96.3418 73.0957C96.5879 72.5996 96.9277 72.2168 97.3613 71.9473C97.7988 71.6777 98.2969 71.543 98.8555 71.543C99.7188 71.543 100.416 71.8418 100.947 72.4395C101.482 73.0371 101.75 73.832 101.75 74.8242V74.9004C101.75 75.5176 101.631 76.0723 101.393 76.5645C101.158 77.0527 100.82 77.4336 100.379 77.707C99.9414 77.9805 99.4375 78.1172 98.8672 78.1172C98.0078 78.1172 97.3105 77.8184 96.7754 77.2207C96.2441 76.623 95.9785 75.832 95.9785 74.8477V74.7715ZM97.0684 74.9004C97.0684 75.6035 97.2305 76.168 97.5547 76.5938C97.8828 77.0195 98.3203 77.2324 98.8672 77.2324C99.418 77.2324 99.8555 77.0176 100.18 76.5879C100.504 76.1543 100.666 75.5488 100.666 74.7715C100.666 74.0762 100.5 73.5137 100.168 73.084C99.8398 72.6504 99.4023 72.4336 98.8555 72.4336C98.3203 72.4336 97.8887 72.6465 97.5605 73.0723C97.2324 73.498 97.0684 74.1074 97.0684 74.9004ZM111.271 78H110.188V72.5566H107.27V78H106.18V71.6602H111.271V78ZM118.367 74.9004C118.367 75.8652 118.146 76.6426 117.705 77.2324C117.264 77.8223 116.666 78.1172 115.912 78.1172C115.143 78.1172 114.537 77.873 114.096 77.3848V80.4375H113.012V71.6602H114.002L114.055 72.3633C114.496 71.8164 115.109 71.543 115.895 71.543C116.656 71.543 117.258 71.8301 117.699 72.4043C118.145 72.9785 118.367 73.7773 118.367 74.8008V74.9004ZM117.283 74.7773C117.283 74.0625 117.131 73.498 116.826 73.084C116.521 72.6699 116.104 72.4629 115.572 72.4629C114.916 72.4629 114.424 72.7539 114.096 73.3359V76.3652C114.42 76.9434 114.916 77.2324 115.584 77.2324C116.104 77.2324 116.516 77.0273 116.82 76.6172C117.129 76.2031 117.283 75.5898 117.283 74.7773ZM119.463 74.7715C119.463 74.1504 119.584 73.5918 119.826 73.0957C120.072 72.5996 120.412 72.2168 120.846 71.9473C121.283 71.6777 121.781 71.543 122.34 71.543C123.203 71.543 123.9 71.8418 124.432 72.4395C124.967 73.0371 125.234 73.832 125.234 74.8242V74.9004C125.234 75.5176 125.115 76.0723 124.877 76.5645C124.643 77.0527 124.305 77.4336 123.863 77.707C123.426 77.9805 122.922 78.1172 122.352 78.1172C121.492 78.1172 120.795 77.8184 120.26 77.2207C119.729 76.623 119.463 75.832 119.463 74.8477V74.7715ZM120.553 74.9004C120.553 75.6035 120.715 76.168 121.039 76.5938C121.367 77.0195 121.805 77.2324 122.352 77.2324C122.902 77.2324 123.34 77.0176 123.664 76.5879C123.988 76.1543 124.15 75.5488 124.15 74.7715C124.15 74.0762 123.984 73.5137 123.652 73.084C123.324 72.6504 122.887 72.4336 122.34 72.4336C121.805 72.4336 121.373 72.6465 121.045 73.0723C120.717 73.498 120.553 74.1074 120.553 74.9004ZM126.119 77.1152L126.494 76.6523C126.916 76.1055 127.156 75.2852 127.215 74.1914L127.314 71.6602H131.398V77.1152H132.213V79.8633H131.129V78H126.705V79.8633H125.621L125.627 77.1152H126.119ZM127.402 77.1152H130.314V72.6621H128.363L128.299 74.1738C128.232 75.4355 127.934 76.416 127.402 77.1152ZM137.328 78C137.266 77.875 137.215 77.6523 137.176 77.332C136.672 77.8555 136.07 78.1172 135.371 78.1172C134.746 78.1172 134.232 77.9414 133.83 77.5898C133.432 77.2344 133.232 76.7852 133.232 76.2422C133.232 75.582 133.482 75.0703 133.982 74.707C134.486 74.3398 135.193 74.1562 136.104 74.1562H137.158V73.6582C137.158 73.2793 137.045 72.9785 136.818 72.7559C136.592 72.5293 136.258 72.416 135.816 72.416C135.43 72.416 135.105 72.5137 134.844 72.709C134.582 72.9043 134.451 73.1406 134.451 73.418H133.361C133.361 73.1016 133.473 72.7969 133.695 72.5039C133.922 72.207 134.227 71.9727 134.609 71.8008C134.996 71.6289 135.42 71.543 135.881 71.543C136.611 71.543 137.184 71.7266 137.598 72.0938C138.012 72.457 138.227 72.959 138.242 73.5996V76.5176C138.242 77.0996 138.316 77.5625 138.465 77.9062V78H137.328ZM135.529 77.1738C135.869 77.1738 136.191 77.0859 136.496 76.9102C136.801 76.7344 137.021 76.5059 137.158 76.2246V74.9238H136.309C134.98 74.9238 134.316 75.3125 134.316 76.0898C134.316 76.4297 134.43 76.6953 134.656 76.8867C134.883 77.0781 135.174 77.1738 135.529 77.1738ZM144.998 75.2461H144.236V78H143.152V75.2461H142.391L140.615 78H139.244L141.512 74.7188L139.461 71.6602H140.773L142.408 74.2852H143.152V71.6602H144.236V74.2852H144.975L146.621 71.6602H147.934L145.877 74.7246L148.145 78H146.773L144.998 75.2461ZM151.643 78.1172C150.783 78.1172 150.084 77.8359 149.545 77.2734C149.006 76.707 148.736 75.9512 148.736 75.0059V74.8066C148.736 74.1777 148.855 73.6172 149.094 73.125C149.336 72.6289 149.672 72.2422 150.102 71.9648C150.535 71.6836 151.004 71.543 151.508 71.543C152.332 71.543 152.973 71.8145 153.43 72.3574C153.887 72.9004 154.115 73.6777 154.115 74.6895V75.1406H149.82C149.836 75.7656 150.018 76.2715 150.365 76.6582C150.717 77.041 151.162 77.2324 151.701 77.2324C152.084 77.2324 152.408 77.1543 152.674 76.998C152.939 76.8418 153.172 76.6348 153.371 76.377L154.033 76.8926C153.502 77.709 152.705 78.1172 151.643 78.1172ZM151.508 72.4336C151.07 72.4336 150.703 72.5938 150.406 72.9141C150.109 73.2305 149.926 73.6758 149.855 74.25H153.031V74.168C153 73.6172 152.852 73.1914 152.586 72.8906C152.32 72.5859 151.961 72.4336 151.508 72.4336Z" fill="#999999"/>
</svg>
