<svg width="250" height="104" viewBox="0 0 250 104" fill="none" xmlns="http://www.w3.org/2000/svg">
<path d="M0 0H250V104H0V0Z" fill="#EEEEEE"/>
<path d="M93.543 43.0273H86.9336L85.5508 47H82.4688L88.9141 29.9375H91.5742L98.0312 47H94.9375L93.543 43.0273ZM87.7656 40.6367H92.7109L90.2383 33.5586L87.7656 40.6367ZM110.242 40.7891C110.242 42.75 109.797 44.3164 108.906 45.4883C108.016 46.6523 106.82 47.2344 105.32 47.2344C103.93 47.2344 102.816 46.7773 101.98 45.8633V51.875H99.1328V34.3203H101.758L101.875 35.6094C102.711 34.5938 103.848 34.0859 105.285 34.0859C106.832 34.0859 108.043 34.6641 108.918 35.8203C109.801 36.9688 110.242 38.5664 110.242 40.6133V40.7891ZM107.406 40.543C107.406 39.2773 107.152 38.2734 106.645 37.5312C106.145 36.7891 105.426 36.418 104.488 36.418C103.324 36.418 102.488 36.8984 101.98 37.8594V43.4844C102.496 44.4688 103.34 44.9609 104.512 44.9609C105.418 44.9609 106.125 44.5977 106.633 43.8711C107.148 43.1367 107.406 42.0273 107.406 40.543ZM118.246 47.2344C116.441 47.2344 114.977 46.668 113.852 45.5352C112.734 44.3945 112.176 42.8789 112.176 40.9883V40.6367C112.176 39.3711 112.418 38.2422 112.902 37.25C113.395 36.25 114.082 35.4727 114.965 34.918C115.848 34.3633 116.832 34.0859 117.918 34.0859C119.645 34.0859 120.977 34.6367 121.914 35.7383C122.859 36.8398 123.332 38.3984 123.332 40.4141V41.5625H115.047C115.133 42.6094 115.48 43.4375 116.09 44.0469C116.707 44.6562 117.48 44.9609 118.41 44.9609C119.715 44.9609 120.777 44.4336 121.598 43.3789L123.133 44.8438C122.625 45.6016 121.945 46.1914 121.094 46.6133C120.25 47.0273 119.301 47.2344 118.246 47.2344ZM117.906 36.3711C117.125 36.3711 116.492 36.6445 116.008 37.1914C115.531 37.7383 115.227 38.5 115.094 39.4766H120.52V39.2656C120.457 38.3125 120.203 37.5938 119.758 37.1094C119.312 36.6172 118.695 36.3711 117.906 36.3711ZM136.293 47H133.445V41.8789H128.512V47H125.664V34.3203H128.512V39.6055H133.445V34.3203H136.293V47ZM139.387 44.7266C140.176 43.8438 140.703 43.0078 140.969 42.2188C141.242 41.4219 141.406 40.4062 141.461 39.1719L141.625 34.3203H150.426V44.7266H152.184V50.7734H149.348V47H141.215V50.7734H138.332L138.344 44.7266H139.387ZM142.727 44.7266H147.59V36.7695H144.391L144.309 39.1953C144.199 41.5234 143.672 43.3672 142.727 44.7266ZM161.793 47C161.668 46.7578 161.559 46.3633 161.465 45.8164C160.559 46.7617 159.449 47.2344 158.137 47.2344C156.863 47.2344 155.824 46.8711 155.02 46.1445C154.215 45.418 153.812 44.5195 153.812 43.4492C153.812 42.0977 154.312 41.0625 155.312 40.3438C156.32 39.6172 157.758 39.2539 159.625 39.2539H161.371V38.4219C161.371 37.7656 161.188 37.2422 160.82 36.8516C160.453 36.4531 159.895 36.2539 159.145 36.2539C158.496 36.2539 157.965 36.418 157.551 36.7461C157.137 37.0664 156.93 37.4766 156.93 37.9766H154.082C154.082 37.2812 154.312 36.6328 154.773 36.0312C155.234 35.4219 155.859 34.9453 156.648 34.6016C157.445 34.2578 158.332 34.0859 159.309 34.0859C160.793 34.0859 161.977 34.4609 162.859 35.2109C163.742 35.9531 164.195 37 164.219 38.3516V44.0703C164.219 45.2109 164.379 46.1211 164.699 46.8008V47H161.793ZM158.664 44.9492C159.227 44.9492 159.754 44.8125 160.246 44.5391C160.746 44.2656 161.121 43.8984 161.371 43.4375V41.0469H159.836C158.781 41.0469 157.988 41.2305 157.457 41.5977C156.926 41.9648 156.66 42.4844 156.66 43.1562C156.66 43.7031 156.84 44.1406 157.199 44.4688C157.566 44.7891 158.055 44.9492 158.664 44.9492Z" fill="#999999"/>
<path d="M57.3613 60.6602V64H56.2363V55.4688H59.3828C60.3164 55.4688 61.0469 55.707 61.5742 56.1836C62.1055 56.6602 62.3711 57.291 62.3711 58.0762C62.3711 58.9043 62.1113 59.543 61.5918 59.9922C61.0762 60.4375 60.3359 60.6602 59.3711 60.6602H57.3613ZM57.3613 59.7402H59.3828C59.9844 59.7402 60.4453 59.5996 60.7656 59.3184C61.0859 59.0332 61.2461 58.623 61.2461 58.0879C61.2461 57.5801 61.0859 57.1738 60.7656 56.8691C60.4453 56.5645 60.0059 56.4062 59.4473 56.3945H57.3613V59.7402ZM67.4805 64C67.418 63.875 67.3672 63.6523 67.3281 63.332C66.8242 63.8555 66.2227 64.1172 65.5234 64.1172C64.8984 64.1172 64.3848 63.9414 63.9824 63.5898C63.584 63.2344 63.3848 62.7852 63.3848 62.2422C63.3848 61.582 63.6348 61.0703 64.1348 60.707C64.6387 60.3398 65.3457 60.1562 66.2559 60.1562H67.3105V59.6582C67.3105 59.2793 67.1973 58.9785 66.9707 58.7559C66.7441 58.5293 66.4102 58.416 65.9688 58.416C65.582 58.416 65.2578 58.5137 64.9961 58.709C64.7344 58.9043 64.6035 59.1406 64.6035 59.418H63.5137C63.5137 59.1016 63.625 58.7969 63.8477 58.5039C64.0742 58.207 64.3789 57.9727 64.7617 57.8008C65.1484 57.6289 65.5723 57.543 66.0332 57.543C66.7637 57.543 67.3359 57.7266 67.75 58.0938C68.1641 58.457 68.3789 58.959 68.3945 59.5996V62.5176C68.3945 63.0996 68.4688 63.5625 68.6172 63.9062V64H67.4805ZM65.6816 63.1738C66.0215 63.1738 66.3438 63.0859 66.6484 62.9102C66.9531 62.7344 67.1738 62.5059 67.3105 62.2246V60.9238H66.4609C65.1328 60.9238 64.4688 61.3125 64.4688 62.0898C64.4688 62.4297 64.582 62.6953 64.8086 62.8867C65.0352 63.0781 65.3262 63.1738 65.6816 63.1738ZM73.5801 59.3945C73.5801 59.0977 73.4668 58.8633 73.2402 58.6914C73.0137 58.5156 72.7031 58.4277 72.3086 58.4277C71.9258 58.4277 71.6055 58.5273 71.3477 58.7266C71.0938 58.9258 70.9668 59.1602 70.9668 59.4297H69.8887C69.8887 58.8789 70.1191 58.4277 70.5801 58.0762C71.041 57.7246 71.6172 57.5488 72.3086 57.5488C73.0508 57.5488 73.6289 57.709 74.043 58.0293C74.457 58.3457 74.6641 58.7988 74.6641 59.3887C74.6641 59.6738 74.5781 59.9355 74.4062 60.1738C74.2344 60.4121 73.9902 60.6016 73.6738 60.7422C74.4121 60.9922 74.7812 61.4844 74.7812 62.2188C74.7812 62.8008 74.5566 63.2617 74.1074 63.6016C73.6582 63.9414 73.0586 64.1113 72.3086 64.1113C71.5781 64.1113 70.9746 63.9336 70.498 63.5781C70.0254 63.2188 69.7891 62.7344 69.7891 62.125H70.8672C70.8672 62.4336 71.0039 62.6992 71.2773 62.9219C71.5547 63.1406 71.8984 63.25 72.3086 63.25C72.7227 63.25 73.0566 63.1543 73.3105 62.9629C73.5645 62.7715 73.6914 62.5234 73.6914 62.2188C73.6914 61.8633 73.584 61.6094 73.3691 61.457C73.1582 61.3008 72.8281 61.2227 72.3789 61.2227H71.2949V60.3086H72.4727C73.2109 60.2891 73.5801 59.9844 73.5801 59.3945ZM79.8379 62.5645L81.9941 57.6602H83.3477V64H82.2637V59.3887L80.2129 64H79.4629L77.3711 59.2891V64H76.2871V57.6602H77.6934L79.8379 62.5645ZM87.7246 64.1172C86.8652 64.1172 86.166 63.8359 85.627 63.2734C85.0879 62.707 84.8184 61.9512 84.8184 61.0059V60.8066C84.8184 60.1777 84.9375 59.6172 85.1758 59.125C85.418 58.6289 85.7539 58.2422 86.1836 57.9648C86.6172 57.6836 87.0859 57.543 87.5898 57.543C88.4141 57.543 89.0547 57.8145 89.5117 58.3574C89.9688 58.9004 90.1973 59.6777 90.1973 60.6895V61.1406H85.9023C85.918 61.7656 86.0996 62.2715 86.4473 62.6582C86.7988 63.041 87.2441 63.2324 87.7832 63.2324C88.166 63.2324 88.4902 63.1543 88.7559 62.998C89.0215 62.8418 89.2539 62.6348 89.4531 62.377L90.1152 62.8926C89.584 63.709 88.7871 64.1172 87.7246 64.1172ZM87.5898 58.4336C87.1523 58.4336 86.7852 58.5938 86.4883 58.9141C86.1914 59.2305 86.0078 59.6758 85.9375 60.25H89.1133V60.168C89.082 59.6172 88.9336 59.1914 88.668 58.8906C88.4023 58.5859 88.043 58.4336 87.5898 58.4336ZM94 63.2324C94.3867 63.2324 94.7246 63.1152 95.0137 62.8809C95.3027 62.6465 95.4629 62.3535 95.4941 62.002H96.5195C96.5 62.3652 96.375 62.7109 96.1445 63.0391C95.9141 63.3672 95.6055 63.6289 95.2188 63.8242C94.8359 64.0195 94.4297 64.1172 94 64.1172C93.1367 64.1172 92.4492 63.8301 91.9375 63.2559C91.4297 62.6777 91.1758 61.8887 91.1758 60.8887V60.707C91.1758 60.0898 91.2891 59.541 91.5156 59.0605C91.7422 58.5801 92.0664 58.207 92.4883 57.9414C92.9141 57.6758 93.416 57.543 93.9941 57.543C94.7051 57.543 95.2949 57.7559 95.7637 58.1816C96.2363 58.6074 96.4883 59.1602 96.5195 59.8398H95.4941C95.4629 59.4297 95.3066 59.0938 95.0254 58.832C94.748 58.5664 94.4043 58.4336 93.9941 58.4336C93.4434 58.4336 93.0156 58.6328 92.7109 59.0312C92.4102 59.4258 92.2598 59.998 92.2598 60.748V60.9531C92.2598 61.6836 92.4102 62.2461 92.7109 62.6406C93.0117 63.0352 93.4414 63.2324 94 63.2324ZM102.449 58.5391H100.322V64H99.2383V58.5391H97.1523V57.6602H102.449V58.5391ZM107.605 57.6602H108.689V64H107.605V59.377L104.682 64H103.598V57.6602H104.682V62.2891L107.605 57.6602ZM115.141 58.5391H113.014V64H111.93V58.5391H109.844V57.6602H115.141V58.5391ZM117.379 59.8457H119.025C119.744 59.8535 120.312 60.041 120.73 60.4082C121.148 60.7754 121.357 61.2734 121.357 61.9023C121.357 62.5352 121.143 63.043 120.713 63.4258C120.283 63.8086 119.705 64 118.979 64H116.295V57.6602H117.379V59.8457ZM117.379 60.7305V63.1152H118.99C119.396 63.1152 119.711 63.0117 119.934 62.8047C120.156 62.5938 120.268 62.3066 120.268 61.9434C120.268 61.5918 120.158 61.3047 119.939 61.082C119.725 60.8555 119.422 60.7383 119.031 60.7305H117.379ZM125.4 60.7715C125.4 60.1504 125.521 59.5918 125.764 59.0957C126.01 58.5996 126.35 58.2168 126.783 57.9473C127.221 57.6777 127.719 57.543 128.277 57.543C129.141 57.543 129.838 57.8418 130.369 58.4395C130.904 59.0371 131.172 59.832 131.172 60.8242V60.9004C131.172 61.5176 131.053 62.0723 130.814 62.5645C130.58 63.0527 130.242 63.4336 129.801 63.707C129.363 63.9805 128.859 64.1172 128.289 64.1172C127.43 64.1172 126.732 63.8184 126.197 63.2207C125.666 62.623 125.4 61.832 125.4 60.8477V60.7715ZM126.49 60.9004C126.49 61.6035 126.652 62.168 126.977 62.5938C127.305 63.0195 127.742 63.2324 128.289 63.2324C128.84 63.2324 129.277 63.0176 129.602 62.5879C129.926 62.1543 130.088 61.5488 130.088 60.7715C130.088 60.0762 129.922 59.5137 129.59 59.084C129.262 58.6504 128.824 58.4336 128.277 58.4336C127.742 58.4336 127.311 58.6465 126.982 59.0723C126.654 59.498 126.49 60.1074 126.49 60.9004ZM135.314 58.0234C136.111 58.0234 136.748 58.291 137.225 58.8262C137.705 59.3574 137.945 60.0586 137.945 60.9297V61.0293C137.945 61.627 137.83 62.1621 137.6 62.6348C137.369 63.1035 137.037 63.4688 136.604 63.7305C136.174 63.9883 135.678 64.1172 135.115 64.1172C134.264 64.1172 133.578 63.834 133.059 63.2676C132.539 62.6973 132.279 61.9336 132.279 60.9766V60.4492C132.279 59.1172 132.525 58.0586 133.018 57.2734C133.514 56.4883 134.244 56.0098 135.209 55.8379C135.756 55.7402 136.125 55.6211 136.316 55.4805C136.508 55.3398 136.604 55.1465 136.604 54.9004H137.494C137.494 55.3887 137.383 55.7695 137.16 56.043C136.941 56.3164 136.59 56.5098 136.105 56.623L135.297 56.8047C134.652 56.957 134.168 57.2148 133.844 57.5781C133.523 57.9375 133.314 58.418 133.217 59.0195C133.791 58.3555 134.49 58.0234 135.314 58.0234ZM135.104 58.9141C134.572 58.9141 134.15 59.0938 133.838 59.4531C133.525 59.8086 133.369 60.3027 133.369 60.9355V61.0293C133.369 61.709 133.525 62.248 133.838 62.6465C134.154 63.041 134.58 63.2383 135.115 63.2383C135.654 63.2383 136.08 63.0391 136.393 62.6406C136.705 62.2422 136.861 61.6602 136.861 60.8945C136.861 60.2969 136.703 59.8184 136.387 59.459C136.074 59.0957 135.646 58.9141 135.104 58.9141ZM138.52 57.6602H141.484V59.8457H143.131C143.85 59.8535 144.418 60.041 144.836 60.4082C145.254 60.7754 145.463 61.2734 145.463 61.9023C145.463 62.5352 145.248 63.043 144.818 63.4258C144.389 63.8086 143.811 64 143.084 64H140.4V58.5508H138.52V57.6602ZM141.484 60.7305V63.1152H143.096C143.502 63.1152 143.816 63.0117 144.039 62.8047C144.262 62.5938 144.373 62.3066 144.373 61.9434C144.373 61.5918 144.264 61.3047 144.045 61.082C143.83 60.8555 143.527 60.7383 143.137 60.7305H141.484ZM151.463 57.6602V64H150.373V61.5332H148.738L147.244 64H146.072L147.666 61.3691C147.26 61.2207 146.947 60.9922 146.729 60.6836C146.514 60.3711 146.406 60.0078 146.406 59.5938C146.406 59.0156 146.623 58.5508 147.057 58.1992C147.49 57.8438 148.07 57.6641 148.797 57.6602H151.463ZM147.496 59.6055C147.496 59.9141 147.602 60.1641 147.812 60.3555C148.023 60.543 148.303 60.6387 148.65 60.6426H150.373V58.5391H148.814C148.412 58.5391 148.092 58.6387 147.854 58.8379C147.615 59.0332 147.496 59.2891 147.496 59.6055ZM153.303 64V57.6602H155.775C156.619 57.6602 157.266 57.8086 157.715 58.1055C158.168 58.3984 158.395 58.8301 158.395 59.4004C158.395 59.6934 158.307 59.959 158.131 60.1973C157.955 60.4316 157.695 60.6113 157.352 60.7363C157.734 60.8262 158.041 61.002 158.271 61.2637C158.506 61.5254 158.623 61.8379 158.623 62.2012C158.623 62.7832 158.408 63.2285 157.979 63.5371C157.553 63.8457 156.949 64 156.168 64H153.303ZM154.387 61.2168V63.127H156.18C156.633 63.127 156.971 63.043 157.193 62.875C157.42 62.707 157.533 62.4707 157.533 62.166C157.533 61.5332 157.068 61.2168 156.139 61.2168H154.387ZM154.387 60.3496H155.787C156.803 60.3496 157.311 60.0527 157.311 59.459C157.311 58.8652 156.83 58.5586 155.869 58.5391H154.387V60.3496ZM165.256 57.6602V64H164.166V58.5566H162.01L161.881 60.9297C161.811 62.0195 161.627 62.7988 161.33 63.2676C161.037 63.7363 160.57 63.9805 159.93 64H159.496V63.0449L159.807 63.0215C160.158 62.9824 160.41 62.7793 160.562 62.4121C160.715 62.0449 160.812 61.3652 160.855 60.373L160.973 57.6602H165.256ZM169.627 64.1172C168.768 64.1172 168.068 63.8359 167.529 63.2734C166.99 62.707 166.721 61.9512 166.721 61.0059V60.8066C166.721 60.1777 166.84 59.6172 167.078 59.125C167.32 58.6289 167.656 58.2422 168.086 57.9648C168.52 57.6836 168.988 57.543 169.492 57.543C170.316 57.543 170.957 57.8145 171.414 58.3574C171.871 58.9004 172.1 59.6777 172.1 60.6895V61.1406H167.805C167.82 61.7656 168.002 62.2715 168.35 62.6582C168.701 63.041 169.146 63.2324 169.686 63.2324C170.068 63.2324 170.393 63.1543 170.658 62.998C170.924 62.8418 171.156 62.6348 171.355 62.377L172.018 62.8926C171.486 63.709 170.689 64.1172 169.627 64.1172ZM169.492 58.4336C169.055 58.4336 168.688 58.5938 168.391 58.9141C168.094 59.2305 167.91 59.6758 167.84 60.25H171.016V60.168C170.984 59.6172 170.836 59.1914 170.57 58.8906C170.305 58.5859 169.945 58.4336 169.492 58.4336ZM178.539 64H177.455V61.293H174.543V64H173.453V57.6602H174.543V60.4082H177.455V57.6602H178.539V64ZM184.387 57.6602H185.471V64H184.387V59.377L181.463 64H180.379V57.6602H181.463V62.2891L184.387 57.6602ZM189.842 64.1172C188.982 64.1172 188.283 63.8359 187.744 63.2734C187.205 62.707 186.936 61.9512 186.936 61.0059V60.8066C186.936 60.1777 187.055 59.6172 187.293 59.125C187.535 58.6289 187.871 58.2422 188.301 57.9648C188.734 57.6836 189.203 57.543 189.707 57.543C190.531 57.543 191.172 57.8145 191.629 58.3574C192.086 58.9004 192.314 59.6777 192.314 60.6895V61.1406H188.02C188.035 61.7656 188.217 62.2715 188.564 62.6582C188.916 63.041 189.361 63.2324 189.9 63.2324C190.283 63.2324 190.607 63.1543 190.873 62.998C191.139 62.8418 191.371 62.6348 191.57 62.377L192.232 62.8926C191.701 63.709 190.904 64.1172 189.842 64.1172ZM189.707 58.4336C189.27 58.4336 188.902 58.5938 188.605 58.9141C188.309 59.2305 188.125 59.6758 188.055 60.25H191.23V60.168C191.199 59.6172 191.051 59.1914 190.785 58.8906C190.52 58.5859 190.16 58.4336 189.707 58.4336ZM96.2266 74.7715C96.2266 74.1504 96.3477 73.5918 96.5898 73.0957C96.8359 72.5996 97.1758 72.2168 97.6094 71.9473C98.0469 71.6777 98.5449 71.543 99.1035 71.543C99.9668 71.543 100.664 71.8418 101.195 72.4395C101.73 73.0371 101.998 73.832 101.998 74.8242V74.9004C101.998 75.5176 101.879 76.0723 101.641 76.5645C101.406 77.0527 101.068 77.4336 100.627 77.707C100.189 77.9805 99.6855 78.1172 99.1152 78.1172C98.2559 78.1172 97.5586 77.8184 97.0234 77.2207C96.4922 76.623 96.2266 75.832 96.2266 74.8477V74.7715ZM97.3164 74.9004C97.3164 75.6035 97.4785 76.168 97.8027 76.5938C98.1309 77.0195 98.5684 77.2324 99.1152 77.2324C99.666 77.2324 100.104 77.0176 100.428 76.5879C100.752 76.1543 100.914 75.5488 100.914 74.7715C100.914 74.0762 100.748 73.5137 100.416 73.084C100.088 72.6504 99.6504 72.4336 99.1035 72.4336C98.5684 72.4336 98.1367 72.6465 97.8086 73.0723C97.4805 73.498 97.3164 74.1074 97.3164 74.9004ZM106.141 72.0234C106.938 72.0234 107.574 72.291 108.051 72.8262C108.531 73.3574 108.771 74.0586 108.771 74.9297V75.0293C108.771 75.627 108.656 76.1621 108.426 76.6348C108.195 77.1035 107.863 77.4688 107.43 77.7305C107 77.9883 106.504 78.1172 105.941 78.1172C105.09 78.1172 104.404 77.834 103.885 77.2676C103.365 76.6973 103.105 75.9336 103.105 74.9766V74.4492C103.105 73.1172 103.352 72.0586 103.844 71.2734C104.34 70.4883 105.07 70.0098 106.035 69.8379C106.582 69.7402 106.951 69.6211 107.143 69.4805C107.334 69.3398 107.43 69.1465 107.43 68.9004H108.32C108.32 69.3887 108.209 69.7695 107.986 70.043C107.768 70.3164 107.416 70.5098 106.932 70.623L106.123 70.8047C105.479 70.957 104.994 71.2148 104.67 71.5781C104.35 71.9375 104.141 72.418 104.043 73.0195C104.617 72.3555 105.316 72.0234 106.141 72.0234ZM105.93 72.9141C105.398 72.9141 104.977 73.0938 104.664 73.4531C104.352 73.8086 104.195 74.3027 104.195 74.9355V75.0293C104.195 75.709 104.352 76.248 104.664 76.6465C104.98 77.041 105.406 77.2383 105.941 77.2383C106.48 77.2383 106.906 77.0391 107.219 76.6406C107.531 76.2422 107.688 75.6602 107.688 74.8945C107.688 74.2969 107.529 73.8184 107.213 73.459C106.9 73.0957 106.473 72.9141 105.93 72.9141ZM116.881 78C116.818 77.875 116.768 77.6523 116.729 77.332C116.225 77.8555 115.623 78.1172 114.924 78.1172C114.299 78.1172 113.785 77.9414 113.383 77.5898C112.984 77.2344 112.785 76.7852 112.785 76.2422C112.785 75.582 113.035 75.0703 113.535 74.707C114.039 74.3398 114.746 74.1562 115.656 74.1562H116.711V73.6582C116.711 73.2793 116.598 72.9785 116.371 72.7559C116.145 72.5293 115.811 72.416 115.369 72.416C114.982 72.416 114.658 72.5137 114.396 72.709C114.135 72.9043 114.004 73.1406 114.004 73.418H112.914C112.914 73.1016 113.025 72.7969 113.248 72.5039C113.475 72.207 113.779 71.9727 114.162 71.8008C114.549 71.6289 114.973 71.543 115.434 71.543C116.164 71.543 116.736 71.7266 117.15 72.0938C117.564 72.457 117.779 72.959 117.795 73.5996V76.5176C117.795 77.0996 117.869 77.5625 118.018 77.9062V78H116.881ZM115.082 77.1738C115.422 77.1738 115.744 77.0859 116.049 76.9102C116.354 76.7344 116.574 76.5059 116.711 76.2246V74.9238H115.861C114.533 74.9238 113.869 75.3125 113.869 76.0898C113.869 76.4297 113.982 76.6953 114.209 76.8867C114.436 77.0781 114.727 77.1738 115.082 77.1738ZM124.85 74.9004C124.85 75.8652 124.629 76.6426 124.188 77.2324C123.746 77.8223 123.148 78.1172 122.395 78.1172C121.625 78.1172 121.02 77.873 120.578 77.3848V80.4375H119.494V71.6602H120.484L120.537 72.3633C120.979 71.8164 121.592 71.543 122.377 71.543C123.139 71.543 123.74 71.8301 124.182 72.4043C124.627 72.9785 124.85 73.7773 124.85 74.8008V74.9004ZM123.766 74.7773C123.766 74.0625 123.613 73.498 123.309 73.084C123.004 72.6699 122.586 72.4629 122.055 72.4629C121.398 72.4629 120.906 72.7539 120.578 73.3359V76.3652C120.902 76.9434 121.398 77.2324 122.066 77.2324C122.586 77.2324 122.998 77.0273 123.303 76.6172C123.611 76.2031 123.766 75.5898 123.766 74.7773ZM128.863 78.1172C128.004 78.1172 127.305 77.8359 126.766 77.2734C126.227 76.707 125.957 75.9512 125.957 75.0059V74.8066C125.957 74.1777 126.076 73.6172 126.314 73.125C126.557 72.6289 126.893 72.2422 127.322 71.9648C127.756 71.6836 128.225 71.543 128.729 71.543C129.553 71.543 130.193 71.8145 130.65 72.3574C131.107 72.9004 131.336 73.6777 131.336 74.6895V75.1406H127.041C127.057 75.7656 127.238 76.2715 127.586 76.6582C127.938 77.041 128.383 77.2324 128.922 77.2324C129.305 77.2324 129.629 77.1543 129.895 76.998C130.16 76.8418 130.393 76.6348 130.592 76.377L131.254 76.8926C130.723 77.709 129.926 78.1172 128.863 78.1172ZM128.729 72.4336C128.291 72.4336 127.924 72.5938 127.627 72.9141C127.33 73.2305 127.146 73.6758 127.076 74.25H130.252V74.168C130.221 73.6172 130.072 73.1914 129.807 72.8906C129.541 72.5859 129.182 72.4336 128.729 72.4336ZM137.775 78H136.691V75.293H133.779V78H132.689V71.6602H133.779V74.4082H136.691V71.6602H137.775V78ZM139.469 77.1152L139.844 76.6523C140.266 76.1055 140.506 75.2852 140.564 74.1914L140.664 71.6602H144.748V77.1152H145.562V79.8633H144.479V78H140.055V79.8633H138.971L138.977 77.1152H139.469ZM140.752 77.1152H143.664V72.6621H141.713L141.648 74.1738C141.582 75.4355 141.283 76.416 140.752 77.1152ZM149.395 78.1172C148.535 78.1172 147.836 77.8359 147.297 77.2734C146.758 76.707 146.488 75.9512 146.488 75.0059V74.8066C146.488 74.1777 146.607 73.6172 146.846 73.125C147.088 72.6289 147.424 72.2422 147.854 71.9648C148.287 71.6836 148.756 71.543 149.26 71.543C150.084 71.543 150.725 71.8145 151.182 72.3574C151.639 72.9004 151.867 73.6777 151.867 74.6895V75.1406H147.572C147.588 75.7656 147.77 76.2715 148.117 76.6582C148.469 77.041 148.914 77.2324 149.453 77.2324C149.836 77.2324 150.16 77.1543 150.426 76.998C150.691 76.8418 150.924 76.6348 151.123 76.377L151.785 76.8926C151.254 77.709 150.457 78.1172 149.395 78.1172ZM149.26 72.4336C148.822 72.4336 148.455 72.5938 148.158 72.9141C147.861 73.2305 147.678 73.6758 147.607 74.25H150.783V74.168C150.752 73.6172 150.604 73.1914 150.338 72.8906C150.072 72.5859 149.713 72.4336 149.26 72.4336Z" fill="#999999"/>
</svg>
