<svg width="250" height="104" viewBox="0 0 250 104" fill="none" xmlns="http://www.w3.org/2000/svg">
<path d="M0 0H235C243.284 0 250 6.71573 250 15V104H0V0Z" fill="#EEEEEE"/>
<path d="M56.207 41.4453C56.0352 43.2656 55.3633 44.6875 54.1914 45.7109C53.0195 46.7266 51.4609 47.2344 49.5156 47.2344C48.1562 47.2344 46.957 46.9141 45.918 46.2734C44.8867 45.625 44.0898 44.707 43.5273 43.5195C42.9648 42.332 42.6719 40.9531 42.6484 39.3828V37.7891C42.6484 36.1797 42.9336 34.7617 43.5039 33.5352C44.0742 32.3086 44.8906 31.3633 45.9531 30.6992C47.0234 30.0352 48.2578 29.7031 49.6562 29.7031C51.5391 29.7031 53.0547 30.2148 54.2031 31.2383C55.3516 32.2617 56.0195 33.707 56.207 35.5742H53.2539C53.1133 34.3477 52.7539 33.4648 52.1758 32.9258C51.6055 32.3789 50.7656 32.1055 49.6562 32.1055C48.3672 32.1055 47.375 32.5781 46.6797 33.5234C45.9922 34.4609 45.6406 35.8398 45.625 37.6602V39.1719C45.625 41.0156 45.9531 42.4219 46.6094 43.3906C47.2734 44.3594 48.2422 44.8438 49.5156 44.8438C50.6797 44.8438 51.5547 44.582 52.1406 44.0586C52.7266 43.5352 53.0977 42.6641 53.2539 41.4453H56.207ZM58.0586 40.543C58.0586 39.3008 58.3047 38.1836 58.7969 37.1914C59.2891 36.1914 59.9805 35.4258 60.8711 34.8945C61.7617 34.3555 62.7852 34.0859 63.9414 34.0859C65.6523 34.0859 67.0391 34.6367 68.1016 35.7383C69.1719 36.8398 69.75 38.3008 69.8359 40.1211L69.8477 40.7891C69.8477 42.0391 69.6055 43.1562 69.1211 44.1406C68.6445 45.125 67.957 45.8867 67.0586 46.4258C66.168 46.9648 65.1367 47.2344 63.9648 47.2344C62.1758 47.2344 60.7422 46.6406 59.6641 45.4531C58.5938 44.2578 58.0586 42.668 58.0586 40.6836V40.543ZM60.9062 40.7891C60.9062 42.0938 61.1758 43.1172 61.7148 43.8594C62.2539 44.5938 63.0039 44.9609 63.9648 44.9609C64.9258 44.9609 65.6719 44.5859 66.2031 43.8359C66.7422 43.0859 67.0117 41.9883 67.0117 40.543C67.0117 39.2617 66.7344 38.2461 66.1797 37.4961C65.6328 36.7461 64.8867 36.3711 63.9414 36.3711C63.0117 36.3711 62.2734 36.7422 61.7266 37.4844C61.1797 38.2188 60.9062 39.3203 60.9062 40.7891ZM83.1602 41.9023H81.6484V47H78.8008V41.9023H77.3008L74.3828 47H70.8906L75.0977 40.4023L71.1133 34.3203H74.5938L77.4648 39.3008H78.8008V34.3203H81.6484V39.3008H82.9961L85.8789 34.3203H89.3594L85.3867 40.3672L89.6172 47H86.0781L83.1602 41.9023ZM99.2969 34.3203H102.133V47H99.2969V38.5391L94.3281 47H91.4922V34.3203H94.3281V42.7812L99.2969 34.3203ZM115.141 36.582H111.027V47H108.18V36.582H104.113V34.3203H115.141V36.582ZM121.879 47.2344C120.074 47.2344 118.609 46.668 117.484 45.5352C116.367 44.3945 115.809 42.8789 115.809 40.9883V40.6367C115.809 39.3711 116.051 38.2422 116.535 37.25C117.027 36.25 117.715 35.4727 118.598 34.918C119.48 34.3633 120.465 34.0859 121.551 34.0859C123.277 34.0859 124.609 34.6367 125.547 35.7383C126.492 36.8398 126.965 38.3984 126.965 40.4141V41.5625H118.68C118.766 42.6094 119.113 43.4375 119.723 44.0469C120.34 44.6562 121.113 44.9609 122.043 44.9609C123.348 44.9609 124.41 44.4336 125.23 43.3789L126.766 44.8438C126.258 45.6016 125.578 46.1914 124.727 46.6133C123.883 47.0273 122.934 47.2344 121.879 47.2344ZM121.539 36.3711C120.758 36.3711 120.125 36.6445 119.641 37.1914C119.164 37.7383 118.859 38.5 118.727 39.4766H124.152V39.2656C124.09 38.3125 123.836 37.5938 123.391 37.1094C122.945 36.6172 122.328 36.3711 121.539 36.3711ZM139.961 34.3203V47H137.113V36.6172H133.527L133.293 41.0352C133.145 43.1602 132.734 44.6875 132.062 45.6172C131.398 46.5391 130.379 47 129.004 47H128.125L128.113 44.6328L128.699 44.5742C129.324 44.4883 129.777 44.1094 130.059 43.4375C130.348 42.7578 130.531 41.5234 130.609 39.7344L130.844 34.3203H139.961ZM146.055 38.3516H148.844C149.883 38.3516 150.789 38.5312 151.562 38.8906C152.336 39.25 152.922 39.7539 153.32 40.4023C153.727 41.0508 153.93 41.8047 153.93 42.6641C153.93 43.9688 153.469 45.0156 152.547 45.8047C151.625 46.5938 150.398 46.9922 148.867 47H143.207V34.3203H146.055V38.3516ZM146.055 40.6367V44.7266H148.832C149.527 44.7266 150.074 44.5547 150.473 44.2109C150.879 43.8594 151.082 43.3633 151.082 42.7227C151.082 42.082 150.883 41.5781 150.484 41.2109C150.094 40.8359 149.562 40.6445 148.891 40.6367H146.055ZM161.418 44.9609C162.129 44.9609 162.719 44.7539 163.188 44.3398C163.656 43.9258 163.906 43.4141 163.938 42.8047H166.621C166.59 43.5938 166.344 44.332 165.883 45.0195C165.422 45.6992 164.797 46.2383 164.008 46.6367C163.219 47.0352 162.367 47.2344 161.453 47.2344C159.68 47.2344 158.273 46.6602 157.234 45.5117C156.195 44.3633 155.676 42.7773 155.676 40.7539V40.4609C155.676 38.5312 156.191 36.9883 157.223 35.832C158.254 34.668 159.66 34.0859 161.441 34.0859C162.949 34.0859 164.176 34.5273 165.121 35.4102C166.074 36.2852 166.574 37.4375 166.621 38.8672H163.938C163.906 38.1406 163.656 37.543 163.188 37.0742C162.727 36.6055 162.137 36.3711 161.418 36.3711C160.496 36.3711 159.785 36.707 159.285 37.3789C158.785 38.043 158.531 39.0547 158.523 40.4141V40.8711C158.523 42.2461 158.77 43.2734 159.262 43.9531C159.762 44.625 160.48 44.9609 161.418 44.9609ZM178.75 36.582H174.637V47H171.789V36.582H167.723V34.3203H178.75V36.582ZM180.871 47V34.3203H186.016C187.75 34.3203 189.07 34.625 189.977 35.2344C190.883 35.8359 191.336 36.7031 191.336 37.8359C191.336 38.4219 191.152 38.9492 190.785 39.418C190.426 39.8789 189.891 40.2344 189.18 40.4844C190.008 40.6562 190.664 41.0039 191.148 41.5273C191.633 42.0508 191.875 42.668 191.875 43.3789C191.875 44.5586 191.438 45.457 190.562 46.0742C189.695 46.6914 188.445 47 186.812 47H180.871ZM183.719 41.5977V44.75H186.836C188.297 44.75 189.027 44.2266 189.027 43.1797C189.027 42.125 188.285 41.5977 186.801 41.5977H183.719ZM183.719 39.5586H186.062C187.68 39.5586 188.488 39.082 188.488 38.1289C188.488 37.1289 187.723 36.6133 186.191 36.582H183.719V39.5586ZM193.809 40.543C193.809 39.3008 194.055 38.1836 194.547 37.1914C195.039 36.1914 195.73 35.4258 196.621 34.8945C197.512 34.3555 198.535 34.0859 199.691 34.0859C201.402 34.0859 202.789 34.6367 203.852 35.7383C204.922 36.8398 205.5 38.3008 205.586 40.1211L205.598 40.7891C205.598 42.0391 205.355 43.1562 204.871 44.1406C204.395 45.125 203.707 45.8867 202.809 46.4258C201.918 46.9648 200.887 47.2344 199.715 47.2344C197.926 47.2344 196.492 46.6406 195.414 45.4531C194.344 44.2578 193.809 42.668 193.809 40.6836V40.543ZM196.656 40.7891C196.656 42.0938 196.926 43.1172 197.465 43.8594C198.004 44.5938 198.754 44.9609 199.715 44.9609C200.676 44.9609 201.422 44.5859 201.953 43.8359C202.492 43.0859 202.762 41.9883 202.762 40.543C202.762 39.2617 202.484 38.2461 201.93 37.4961C201.383 36.7461 200.637 36.3711 199.691 36.3711C198.762 36.3711 198.023 36.7422 197.477 37.4844C196.93 38.2188 196.656 39.3203 196.656 40.7891Z" fill="#999999"/>
<path d="M57.3613 60.6602V64H56.2363V55.4688H59.3828C60.3164 55.4688 61.0469 55.707 61.5742 56.1836C62.1055 56.6602 62.3711 57.291 62.3711 58.0762C62.3711 58.9043 62.1113 59.543 61.5918 59.9922C61.0762 60.4375 60.3359 60.6602 59.3711 60.6602H57.3613ZM57.3613 59.7402H59.3828C59.9844 59.7402 60.4453 59.5996 60.7656 59.3184C61.0859 59.0332 61.2461 58.623 61.2461 58.0879C61.2461 57.5801 61.0859 57.1738 60.7656 56.8691C60.4453 56.5645 60.0059 56.4062 59.4473 56.3945H57.3613V59.7402ZM67.4805 64C67.418 63.875 67.3672 63.6523 67.3281 63.332C66.8242 63.8555 66.2227 64.1172 65.5234 64.1172C64.8984 64.1172 64.3848 63.9414 63.9824 63.5898C63.584 63.2344 63.3848 62.7852 63.3848 62.2422C63.3848 61.582 63.6348 61.0703 64.1348 60.707C64.6387 60.3398 65.3457 60.1562 66.2559 60.1562H67.3105V59.6582C67.3105 59.2793 67.1973 58.9785 66.9707 58.7559C66.7441 58.5293 66.4102 58.416 65.9688 58.416C65.582 58.416 65.2578 58.5137 64.9961 58.709C64.7344 58.9043 64.6035 59.1406 64.6035 59.418H63.5137C63.5137 59.1016 63.625 58.7969 63.8477 58.5039C64.0742 58.207 64.3789 57.9727 64.7617 57.8008C65.1484 57.6289 65.5723 57.543 66.0332 57.543C66.7637 57.543 67.3359 57.7266 67.75 58.0938C68.1641 58.457 68.3789 58.959 68.3945 59.5996V62.5176C68.3945 63.0996 68.4688 63.5625 68.6172 63.9062V64H67.4805ZM65.6816 63.1738C66.0215 63.1738 66.3438 63.0859 66.6484 62.9102C66.9531 62.7344 67.1738 62.5059 67.3105 62.2246V60.9238H66.4609C65.1328 60.9238 64.4688 61.3125 64.4688 62.0898C64.4688 62.4297 64.582 62.6953 64.8086 62.8867C65.0352 63.0781 65.3262 63.1738 65.6816 63.1738ZM73.5801 59.3945C73.5801 59.0977 73.4668 58.8633 73.2402 58.6914C73.0137 58.5156 72.7031 58.4277 72.3086 58.4277C71.9258 58.4277 71.6055 58.5273 71.3477 58.7266C71.0938 58.9258 70.9668 59.1602 70.9668 59.4297H69.8887C69.8887 58.8789 70.1191 58.4277 70.5801 58.0762C71.041 57.7246 71.6172 57.5488 72.3086 57.5488C73.0508 57.5488 73.6289 57.709 74.043 58.0293C74.457 58.3457 74.6641 58.7988 74.6641 59.3887C74.6641 59.6738 74.5781 59.9355 74.4062 60.1738C74.2344 60.4121 73.9902 60.6016 73.6738 60.7422C74.4121 60.9922 74.7812 61.4844 74.7812 62.2188C74.7812 62.8008 74.5566 63.2617 74.1074 63.6016C73.6582 63.9414 73.0586 64.1113 72.3086 64.1113C71.5781 64.1113 70.9746 63.9336 70.498 63.5781C70.0254 63.2188 69.7891 62.7344 69.7891 62.125H70.8672C70.8672 62.4336 71.0039 62.6992 71.2773 62.9219C71.5547 63.1406 71.8984 63.25 72.3086 63.25C72.7227 63.25 73.0566 63.1543 73.3105 62.9629C73.5645 62.7715 73.6914 62.5234 73.6914 62.2188C73.6914 61.8633 73.584 61.6094 73.3691 61.457C73.1582 61.3008 72.8281 61.2227 72.3789 61.2227H71.2949V60.3086H72.4727C73.2109 60.2891 73.5801 59.9844 73.5801 59.3945ZM79.8379 62.5645L81.9941 57.6602H83.3477V64H82.2637V59.3887L80.2129 64H79.4629L77.3711 59.2891V64H76.2871V57.6602H77.6934L79.8379 62.5645ZM87.7246 64.1172C86.8652 64.1172 86.166 63.8359 85.627 63.2734C85.0879 62.707 84.8184 61.9512 84.8184 61.0059V60.8066C84.8184 60.1777 84.9375 59.6172 85.1758 59.125C85.418 58.6289 85.7539 58.2422 86.1836 57.9648C86.6172 57.6836 87.0859 57.543 87.5898 57.543C88.4141 57.543 89.0547 57.8145 89.5117 58.3574C89.9688 58.9004 90.1973 59.6777 90.1973 60.6895V61.1406H85.9023C85.918 61.7656 86.0996 62.2715 86.4473 62.6582C86.7988 63.041 87.2441 63.2324 87.7832 63.2324C88.166 63.2324 88.4902 63.1543 88.7559 62.998C89.0215 62.8418 89.2539 62.6348 89.4531 62.377L90.1152 62.8926C89.584 63.709 88.7871 64.1172 87.7246 64.1172ZM87.5898 58.4336C87.1523 58.4336 86.7852 58.5938 86.4883 58.9141C86.1914 59.2305 86.0078 59.6758 85.9375 60.25H89.1133V60.168C89.082 59.6172 88.9336 59.1914 88.668 58.8906C88.4023 58.5859 88.043 58.4336 87.5898 58.4336ZM94 63.2324C94.3867 63.2324 94.7246 63.1152 95.0137 62.8809C95.3027 62.6465 95.4629 62.3535 95.4941 62.002H96.5195C96.5 62.3652 96.375 62.7109 96.1445 63.0391C95.9141 63.3672 95.6055 63.6289 95.2188 63.8242C94.8359 64.0195 94.4297 64.1172 94 64.1172C93.1367 64.1172 92.4492 63.8301 91.9375 63.2559C91.4297 62.6777 91.1758 61.8887 91.1758 60.8887V60.707C91.1758 60.0898 91.2891 59.541 91.5156 59.0605C91.7422 58.5801 92.0664 58.207 92.4883 57.9414C92.9141 57.6758 93.416 57.543 93.9941 57.543C94.7051 57.543 95.2949 57.7559 95.7637 58.1816C96.2363 58.6074 96.4883 59.1602 96.5195 59.8398H95.4941C95.4629 59.4297 95.3066 59.0938 95.0254 58.832C94.748 58.5664 94.4043 58.4336 93.9941 58.4336C93.4434 58.4336 93.0156 58.6328 92.7109 59.0312C92.4102 59.4258 92.2598 59.998 92.2598 60.748V60.9531C92.2598 61.6836 92.4102 62.2461 92.7109 62.6406C93.0117 63.0352 93.4414 63.2324 94 63.2324ZM102.449 58.5391H100.322V64H99.2383V58.5391H97.1523V57.6602H102.449V58.5391ZM107.605 57.6602H108.689V64H107.605V59.377L104.682 64H103.598V57.6602H104.682V62.2891L107.605 57.6602ZM115.141 58.5391H113.014V64H111.93V58.5391H109.844V57.6602H115.141V58.5391ZM117.379 59.8457H119.025C119.744 59.8535 120.312 60.041 120.73 60.4082C121.148 60.7754 121.357 61.2734 121.357 61.9023C121.357 62.5352 121.143 63.043 120.713 63.4258C120.283 63.8086 119.705 64 118.979 64H116.295V57.6602H117.379V59.8457ZM117.379 60.7305V63.1152H118.99C119.396 63.1152 119.711 63.0117 119.934 62.8047C120.156 62.5938 120.268 62.3066 120.268 61.9434C120.268 61.5918 120.158 61.3047 119.939 61.082C119.725 60.8555 119.422 60.7383 119.031 60.7305H117.379ZM125.4 60.7715C125.4 60.1504 125.521 59.5918 125.764 59.0957C126.01 58.5996 126.35 58.2168 126.783 57.9473C127.221 57.6777 127.719 57.543 128.277 57.543C129.141 57.543 129.838 57.8418 130.369 58.4395C130.904 59.0371 131.172 59.832 131.172 60.8242V60.9004C131.172 61.5176 131.053 62.0723 130.814 62.5645C130.58 63.0527 130.242 63.4336 129.801 63.707C129.363 63.9805 128.859 64.1172 128.289 64.1172C127.43 64.1172 126.732 63.8184 126.197 63.2207C125.666 62.623 125.4 61.832 125.4 60.8477V60.7715ZM126.49 60.9004C126.49 61.6035 126.652 62.168 126.977 62.5938C127.305 63.0195 127.742 63.2324 128.289 63.2324C128.84 63.2324 129.277 63.0176 129.602 62.5879C129.926 62.1543 130.088 61.5488 130.088 60.7715C130.088 60.0762 129.922 59.5137 129.59 59.084C129.262 58.6504 128.824 58.4336 128.277 58.4336C127.742 58.4336 127.311 58.6465 126.982 59.0723C126.654 59.498 126.49 60.1074 126.49 60.9004ZM135.314 58.0234C136.111 58.0234 136.748 58.291 137.225 58.8262C137.705 59.3574 137.945 60.0586 137.945 60.9297V61.0293C137.945 61.627 137.83 62.1621 137.6 62.6348C137.369 63.1035 137.037 63.4688 136.604 63.7305C136.174 63.9883 135.678 64.1172 135.115 64.1172C134.264 64.1172 133.578 63.834 133.059 63.2676C132.539 62.6973 132.279 61.9336 132.279 60.9766V60.4492C132.279 59.1172 132.525 58.0586 133.018 57.2734C133.514 56.4883 134.244 56.0098 135.209 55.8379C135.756 55.7402 136.125 55.6211 136.316 55.4805C136.508 55.3398 136.604 55.1465 136.604 54.9004H137.494C137.494 55.3887 137.383 55.7695 137.16 56.043C136.941 56.3164 136.59 56.5098 136.105 56.623L135.297 56.8047C134.652 56.957 134.168 57.2148 133.844 57.5781C133.523 57.9375 133.314 58.418 133.217 59.0195C133.791 58.3555 134.49 58.0234 135.314 58.0234ZM135.104 58.9141C134.572 58.9141 134.15 59.0938 133.838 59.4531C133.525 59.8086 133.369 60.3027 133.369 60.9355V61.0293C133.369 61.709 133.525 62.248 133.838 62.6465C134.154 63.041 134.58 63.2383 135.115 63.2383C135.654 63.2383 136.08 63.0391 136.393 62.6406C136.705 62.2422 136.861 61.6602 136.861 60.8945C136.861 60.2969 136.703 59.8184 136.387 59.459C136.074 59.0957 135.646 58.9141 135.104 58.9141ZM138.52 57.6602H141.484V59.8457H143.131C143.85 59.8535 144.418 60.041 144.836 60.4082C145.254 60.7754 145.463 61.2734 145.463 61.9023C145.463 62.5352 145.248 63.043 144.818 63.4258C144.389 63.8086 143.811 64 143.084 64H140.4V58.5508H138.52V57.6602ZM141.484 60.7305V63.1152H143.096C143.502 63.1152 143.816 63.0117 144.039 62.8047C144.262 62.5938 144.373 62.3066 144.373 61.9434C144.373 61.5918 144.264 61.3047 144.045 61.082C143.83 60.8555 143.527 60.7383 143.137 60.7305H141.484ZM151.463 57.6602V64H150.373V61.5332H148.738L147.244 64H146.072L147.666 61.3691C147.26 61.2207 146.947 60.9922 146.729 60.6836C146.514 60.3711 146.406 60.0078 146.406 59.5938C146.406 59.0156 146.623 58.5508 147.057 58.1992C147.49 57.8438 148.07 57.6641 148.797 57.6602H151.463ZM147.496 59.6055C147.496 59.9141 147.602 60.1641 147.812 60.3555C148.023 60.543 148.303 60.6387 148.65 60.6426H150.373V58.5391H148.814C148.412 58.5391 148.092 58.6387 147.854 58.8379C147.615 59.0332 147.496 59.2891 147.496 59.6055ZM153.303 64V57.6602H155.775C156.619 57.6602 157.266 57.8086 157.715 58.1055C158.168 58.3984 158.395 58.8301 158.395 59.4004C158.395 59.6934 158.307 59.959 158.131 60.1973C157.955 60.4316 157.695 60.6113 157.352 60.7363C157.734 60.8262 158.041 61.002 158.271 61.2637C158.506 61.5254 158.623 61.8379 158.623 62.2012C158.623 62.7832 158.408 63.2285 157.979 63.5371C157.553 63.8457 156.949 64 156.168 64H153.303ZM154.387 61.2168V63.127H156.18C156.633 63.127 156.971 63.043 157.193 62.875C157.42 62.707 157.533 62.4707 157.533 62.166C157.533 61.5332 157.068 61.2168 156.139 61.2168H154.387ZM154.387 60.3496H155.787C156.803 60.3496 157.311 60.0527 157.311 59.459C157.311 58.8652 156.83 58.5586 155.869 58.5391H154.387V60.3496ZM165.256 57.6602V64H164.166V58.5566H162.01L161.881 60.9297C161.811 62.0195 161.627 62.7988 161.33 63.2676C161.037 63.7363 160.57 63.9805 159.93 64H159.496V63.0449L159.807 63.0215C160.158 62.9824 160.41 62.7793 160.562 62.4121C160.715 62.0449 160.812 61.3652 160.855 60.373L160.973 57.6602H165.256ZM169.627 64.1172C168.768 64.1172 168.068 63.8359 167.529 63.2734C166.99 62.707 166.721 61.9512 166.721 61.0059V60.8066C166.721 60.1777 166.84 59.6172 167.078 59.125C167.32 58.6289 167.656 58.2422 168.086 57.9648C168.52 57.6836 168.988 57.543 169.492 57.543C170.316 57.543 170.957 57.8145 171.414 58.3574C171.871 58.9004 172.1 59.6777 172.1 60.6895V61.1406H167.805C167.82 61.7656 168.002 62.2715 168.35 62.6582C168.701 63.041 169.146 63.2324 169.686 63.2324C170.068 63.2324 170.393 63.1543 170.658 62.998C170.924 62.8418 171.156 62.6348 171.355 62.377L172.018 62.8926C171.486 63.709 170.689 64.1172 169.627 64.1172ZM169.492 58.4336C169.055 58.4336 168.688 58.5938 168.391 58.9141C168.094 59.2305 167.91 59.6758 167.84 60.25H171.016V60.168C170.984 59.6172 170.836 59.1914 170.57 58.8906C170.305 58.5859 169.945 58.4336 169.492 58.4336ZM178.539 64H177.455V61.293H174.543V64H173.453V57.6602H174.543V60.4082H177.455V57.6602H178.539V64ZM184.387 57.6602H185.471V64H184.387V59.377L181.463 64H180.379V57.6602H181.463V62.2891L184.387 57.6602ZM189.842 64.1172C188.982 64.1172 188.283 63.8359 187.744 63.2734C187.205 62.707 186.936 61.9512 186.936 61.0059V60.8066C186.936 60.1777 187.055 59.6172 187.293 59.125C187.535 58.6289 187.871 58.2422 188.301 57.9648C188.734 57.6836 189.203 57.543 189.707 57.543C190.531 57.543 191.172 57.8145 191.629 58.3574C192.086 58.9004 192.314 59.6777 192.314 60.6895V61.1406H188.02C188.035 61.7656 188.217 62.2715 188.564 62.6582C188.916 63.041 189.361 63.2324 189.9 63.2324C190.283 63.2324 190.607 63.1543 190.873 62.998C191.139 62.8418 191.371 62.6348 191.57 62.377L192.232 62.8926C191.701 63.709 190.904 64.1172 189.842 64.1172ZM189.707 58.4336C189.27 58.4336 188.902 58.5938 188.605 58.9141C188.309 59.2305 188.125 59.6758 188.055 60.25H191.23V60.168C191.199 59.6172 191.051 59.1914 190.785 58.8906C190.52 58.5859 190.16 58.4336 189.707 58.4336ZM79.8789 74.7715C79.8789 74.1504 80 73.5918 80.2422 73.0957C80.4883 72.5996 80.8281 72.2168 81.2617 71.9473C81.6992 71.6777 82.1973 71.543 82.7559 71.543C83.6191 71.543 84.3164 71.8418 84.8477 72.4395C85.3828 73.0371 85.6504 73.832 85.6504 74.8242V74.9004C85.6504 75.5176 85.5312 76.0723 85.293 76.5645C85.0586 77.0527 84.7207 77.4336 84.2793 77.707C83.8418 77.9805 83.3379 78.1172 82.7676 78.1172C81.9082 78.1172 81.2109 77.8184 80.6758 77.2207C80.1445 76.623 79.8789 75.832 79.8789 74.8477V74.7715ZM80.9688 74.9004C80.9688 75.6035 81.1309 76.168 81.4551 76.5938C81.7832 77.0195 82.2207 77.2324 82.7676 77.2324C83.3184 77.2324 83.7559 77.0176 84.0801 76.5879C84.4043 76.1543 84.5664 75.5488 84.5664 74.7715C84.5664 74.0762 84.4004 73.5137 84.0684 73.084C83.7402 72.6504 83.3027 72.4336 82.7559 72.4336C82.2207 72.4336 81.7891 72.6465 81.4609 73.0723C81.1328 73.498 80.9688 74.1074 80.9688 74.9004ZM92.5293 77.2324C92.916 77.2324 93.2539 77.1152 93.543 76.8809C93.832 76.6465 93.9922 76.3535 94.0234 76.002H95.0488C95.0293 76.3652 94.9043 76.7109 94.6738 77.0391C94.4434 77.3672 94.1348 77.6289 93.748 77.8242C93.3652 78.0195 92.959 78.1172 92.5293 78.1172C91.666 78.1172 90.9785 77.8301 90.4668 77.2559C89.959 76.6777 89.7051 75.8887 89.7051 74.8887V74.707C89.7051 74.0898 89.8184 73.541 90.0449 73.0605C90.2715 72.5801 90.5957 72.207 91.0176 71.9414C91.4434 71.6758 91.9453 71.543 92.5234 71.543C93.2344 71.543 93.8242 71.7559 94.293 72.1816C94.7656 72.6074 95.0176 73.1602 95.0488 73.8398H94.0234C93.9922 73.4297 93.8359 73.0938 93.5547 72.832C93.2773 72.5664 92.9336 72.4336 92.5234 72.4336C91.9727 72.4336 91.5449 72.6328 91.2402 73.0312C90.9395 73.4258 90.7891 73.998 90.7891 74.748V74.9531C90.7891 75.6836 90.9395 76.2461 91.2402 76.6406C91.541 77.0352 91.9707 77.2324 92.5293 77.2324ZM95.9805 74.7715C95.9805 74.1504 96.1016 73.5918 96.3438 73.0957C96.5898 72.5996 96.9297 72.2168 97.3633 71.9473C97.8008 71.6777 98.2988 71.543 98.8574 71.543C99.7207 71.543 100.418 71.8418 100.949 72.4395C101.484 73.0371 101.752 73.832 101.752 74.8242V74.9004C101.752 75.5176 101.633 76.0723 101.395 76.5645C101.16 77.0527 100.822 77.4336 100.381 77.707C99.9434 77.9805 99.4395 78.1172 98.8691 78.1172C98.0098 78.1172 97.3125 77.8184 96.7773 77.2207C96.2461 76.623 95.9805 75.832 95.9805 74.8477V74.7715ZM97.0703 74.9004C97.0703 75.6035 97.2324 76.168 97.5566 76.5938C97.8848 77.0195 98.3223 77.2324 98.8691 77.2324C99.4199 77.2324 99.8574 77.0176 100.182 76.5879C100.506 76.1543 100.668 75.5488 100.668 74.7715C100.668 74.0762 100.502 73.5137 100.17 73.084C99.8418 72.6504 99.4043 72.4336 98.8574 72.4336C98.3223 72.4336 97.8906 72.6465 97.5625 73.0723C97.2344 73.498 97.0703 74.1074 97.0703 74.9004ZM108.039 75.2461H107.277V78H106.193V75.2461H105.432L103.656 78H102.285L104.553 74.7188L102.502 71.6602H103.814L105.449 74.2852H106.193V71.6602H107.277V74.2852H108.016L109.662 71.6602H110.975L108.918 74.7246L111.186 78H109.814L108.039 75.2461ZM116.271 71.6602H117.355V78H116.271V73.377L113.348 78H112.264V71.6602H113.348V76.2891L116.271 71.6602ZM123.807 72.5391H121.68V78H120.596V72.5391H118.51V71.6602H123.807V72.5391ZM127.023 78.1172C126.164 78.1172 125.465 77.8359 124.926 77.2734C124.387 76.707 124.117 75.9512 124.117 75.0059V74.8066C124.117 74.1777 124.236 73.6172 124.475 73.125C124.717 72.6289 125.053 72.2422 125.482 71.9648C125.916 71.6836 126.385 71.543 126.889 71.543C127.713 71.543 128.354 71.8145 128.811 72.3574C129.268 72.9004 129.496 73.6777 129.496 74.6895V75.1406H125.201C125.217 75.7656 125.398 76.2715 125.746 76.6582C126.098 77.041 126.543 77.2324 127.082 77.2324C127.465 77.2324 127.789 77.1543 128.055 76.998C128.32 76.8418 128.553 76.6348 128.752 76.377L129.414 76.8926C128.883 77.709 128.086 78.1172 127.023 78.1172ZM126.889 72.4336C126.451 72.4336 126.084 72.5938 125.787 72.9141C125.49 73.2305 125.307 73.6758 125.236 74.25H128.412V74.168C128.381 73.6172 128.232 73.1914 127.967 72.8906C127.701 72.5859 127.342 72.4336 126.889 72.4336ZM135.953 71.6602V78H134.863V72.5566H132.707L132.578 74.9297C132.508 76.0195 132.324 76.7988 132.027 77.2676C131.734 77.7363 131.268 77.9805 130.627 78H130.193V77.0449L130.504 77.0215C130.855 76.9824 131.107 76.7793 131.26 76.4121C131.412 76.0449 131.51 75.3652 131.553 74.373L131.67 71.6602H135.953ZM138.877 73.8457H140.523C141.242 73.8535 141.811 74.041 142.229 74.4082C142.646 74.7754 142.855 75.2734 142.855 75.9023C142.855 76.5352 142.641 77.043 142.211 77.4258C141.781 77.8086 141.203 78 140.477 78H137.793V71.6602H138.877V73.8457ZM138.877 74.7305V77.1152H140.488C140.895 77.1152 141.209 77.0117 141.432 76.8047C141.654 76.5938 141.766 76.3066 141.766 75.9434C141.766 75.5918 141.656 75.3047 141.438 75.082C141.223 74.8555 140.92 74.7383 140.529 74.7305H138.877ZM146.752 77.2324C147.139 77.2324 147.477 77.1152 147.766 76.8809C148.055 76.6465 148.215 76.3535 148.246 76.002H149.271C149.252 76.3652 149.127 76.7109 148.896 77.0391C148.666 77.3672 148.357 77.6289 147.971 77.8242C147.588 78.0195 147.182 78.1172 146.752 78.1172C145.889 78.1172 145.201 77.8301 144.689 77.2559C144.182 76.6777 143.928 75.8887 143.928 74.8887V74.707C143.928 74.0898 144.041 73.541 144.268 73.0605C144.494 72.5801 144.818 72.207 145.24 71.9414C145.666 71.6758 146.168 71.543 146.746 71.543C147.457 71.543 148.047 71.7559 148.516 72.1816C148.988 72.6074 149.24 73.1602 149.271 73.8398H148.246C148.215 73.4297 148.059 73.0938 147.777 72.832C147.5 72.5664 147.156 72.4336 146.746 72.4336C146.195 72.4336 145.768 72.6328 145.463 73.0312C145.162 73.4258 145.012 73.998 145.012 74.748V74.9531C145.012 75.6836 145.162 76.2461 145.463 76.6406C145.764 77.0352 146.193 77.2324 146.752 77.2324ZM155.201 72.5391H153.074V78H151.99V72.5391H149.904V71.6602H155.201V72.5391ZM156.355 78V71.6602H158.828C159.672 71.6602 160.318 71.8086 160.768 72.1055C161.221 72.3984 161.447 72.8301 161.447 73.4004C161.447 73.6934 161.359 73.959 161.184 74.1973C161.008 74.4316 160.748 74.6113 160.404 74.7363C160.787 74.8262 161.094 75.002 161.324 75.2637C161.559 75.5254 161.676 75.8379 161.676 76.2012C161.676 76.7832 161.461 77.2285 161.031 77.5371C160.605 77.8457 160.002 78 159.221 78H156.355ZM157.439 75.2168V77.127H159.232C159.686 77.127 160.023 77.043 160.246 76.875C160.473 76.707 160.586 76.4707 160.586 76.166C160.586 75.5332 160.121 75.2168 159.191 75.2168H157.439ZM157.439 74.3496H158.84C159.855 74.3496 160.363 74.0527 160.363 73.459C160.363 72.8652 159.883 72.5586 158.922 72.5391H157.439V74.3496ZM165.742 78.1172C164.883 78.1172 164.184 77.8359 163.645 77.2734C163.105 76.707 162.836 75.9512 162.836 75.0059V74.8066C162.836 74.1777 162.955 73.6172 163.193 73.125C163.436 72.6289 163.771 72.2422 164.201 71.9648C164.635 71.6836 165.104 71.543 165.607 71.543C166.432 71.543 167.072 71.8145 167.529 72.3574C167.986 72.9004 168.215 73.6777 168.215 74.6895V75.1406H163.92C163.936 75.7656 164.117 76.2715 164.465 76.6582C164.816 77.041 165.262 77.2324 165.801 77.2324C166.184 77.2324 166.508 77.1543 166.773 76.998C167.039 76.8418 167.271 76.6348 167.471 76.377L168.133 76.8926C167.602 77.709 166.805 78.1172 165.742 78.1172ZM165.607 72.4336C165.17 72.4336 164.803 72.5938 164.506 72.9141C164.209 73.2305 164.025 73.6758 163.955 74.25H167.131V74.168C167.1 73.6172 166.951 73.1914 166.686 72.8906C166.42 72.5859 166.061 72.4336 165.607 72.4336Z" fill="#999999"/>
</svg>
