<svg width="19" height="19" viewBox="0 0 19 19" fill="none" xmlns="http://www.w3.org/2000/svg">
<path d="M10.4444 5.72222V1.94444C10.4444 1.69396 10.3449 1.45374 10.1678 1.27662C9.99071 1.0995 9.75048 1 9.5 1H1.94444C1.69396 1 1.45374 1.0995 1.27662 1.27662C1.0995 1.45374 1 1.69396 1 1.94444V17.0556C1 17.306 1.0995 17.5463 1.27662 17.7234C1.45374 17.9005 1.69396 18 1.94444 18H9.5C9.75048 18 9.99071 17.9005 10.1678 17.7234C10.3449 17.5463 10.4444 17.306 10.4444 17.0556V13.2778" stroke="#EF233C" stroke-width="2" stroke-linecap="round" stroke-linejoin="round"/>
<path d="M14.2227 13.2778L18.0004 9.50001L14.2227 5.72223M5.72266 9.50001H18.0004H5.72266Z" stroke="#EF233C" stroke-width="2" stroke-linecap="round" stroke-linejoin="round"/>
</svg>
