<svg width="27" height="25" viewBox="0 0 27 25" fill="none" xmlns="http://www.w3.org/2000/svg">
<path d="M24.0119 3.00026C25.2851 4.27853 26 6.00921 26 7.81338C26 9.61756 25.2851 11.3482 24.0119 12.6265L13.4967 23.2251L2.98143 12.6265C2.03581 11.6745 1.39202 10.4647 1.13065 9.14859C0.869272 7.83247 1.00193 6.46849 1.51201 5.22739C2.02209 3.9863 2.88693 2.92323 3.99826 2.17128C5.1096 1.41933 6.41805 1.0119 7.75983 1C9.55401 1.01089 11.2713 1.72976 12.5382 3.00026C12.9077 3.36589 13.2297 3.77658 13.4967 4.22264C13.7636 3.77658 14.0856 3.36589 14.4551 3.00026C15.0794 2.36692 15.8233 1.86399 16.6436 1.52071C17.4639 1.17743 18.3443 1.00066 19.2335 1.00066C20.1228 1.00066 21.0032 1.17743 21.8235 1.52071C22.6438 1.86399 23.3877 2.36692 24.0119 3.00026V3.00026Z" stroke="#161A1D" stroke-width="2" stroke-linecap="round" stroke-linejoin="round"/>
</svg>
