<svg width="26" height="26" viewBox="0 0 26 26" fill="none" xmlns="http://www.w3.org/2000/svg">
<path d="M19.4993 4.33334C19.7867 4.33334 20.0622 4.44747 20.2654 4.65064C20.4685 4.8538 20.5827 5.12935 20.5827 5.41667V21.6667C20.5827 21.954 20.4685 22.2295 20.2654 22.4327C20.0622 22.6359 19.7867 22.75 19.4993 22.75H6.49935C6.21203 22.75 5.93648 22.6359 5.73332 22.4327C5.53015 22.2295 5.41602 21.954 5.41602 21.6667V5.41667C5.41602 5.12935 5.53015 4.8538 5.73332 4.65064C5.93648 4.44747 6.21203 4.33334 6.49935 4.33334" stroke="#161A1D" stroke-width="2" stroke-linecap="round" stroke-linejoin="round"/>
<path d="M15.1667 3.25H10.8333C10.235 3.25 9.75 3.73502 9.75 4.33333V5.41667C9.75 6.01498 10.235 6.5 10.8333 6.5H15.1667C15.765 6.5 16.25 6.01498 16.25 5.41667V4.33333C16.25 3.73502 15.765 3.25 15.1667 3.25Z" stroke="#161A1D" stroke-width="2" stroke-linecap="round" stroke-linejoin="round"/>
<path d="M9.75 11.9167H16.25" stroke="#161A1D" stroke-width="2" stroke-linecap="round" stroke-linejoin="round"/>
<path d="M9.75 16.25H16.25" stroke="#161A1D" stroke-width="2" stroke-linecap="round" stroke-linejoin="round"/>
</svg>
