<svg width="279" height="14" viewBox="0 0 279 14" fill="none" xmlns="http://www.w3.org/2000/svg">
<path d="M103.818 7.00977C103.818 7.8457 103.678 8.57617 103.396 9.20117C103.115 9.82227 102.717 10.2969 102.201 10.625C101.686 10.9531 101.084 11.1172 100.396 11.1172C99.7246 11.1172 99.1289 10.9531 98.6094 10.625C98.0898 10.293 97.6855 9.82227 97.3965 9.21289C97.1113 8.59961 96.9648 7.89062 96.957 7.08594V6.4707C96.957 5.65039 97.0996 4.92578 97.3848 4.29688C97.6699 3.66797 98.0723 3.1875 98.5918 2.85547C99.1152 2.51953 99.7129 2.35156 100.385 2.35156C101.068 2.35156 101.67 2.51758 102.189 2.84961C102.713 3.17773 103.115 3.65625 103.396 4.28516C103.678 4.91016 103.818 5.63867 103.818 6.4707V7.00977ZM102.699 6.45898C102.699 5.44727 102.496 4.67188 102.09 4.13281C101.684 3.58984 101.115 3.31836 100.385 3.31836C99.6738 3.31836 99.1133 3.58984 98.7031 4.13281C98.2969 4.67188 98.0879 5.42188 98.0762 6.38281V7.00977C98.0762 7.99023 98.2812 8.76172 98.6914 9.32422C99.1055 9.88281 99.6738 10.1621 100.396 10.1621C101.123 10.1621 101.686 9.89844 102.084 9.37109C102.482 8.83984 102.688 8.08008 102.699 7.0918V6.45898ZM110.521 11H109.438V5.55664H106.52V11H105.43V4.66016H110.521V11ZM114.336 9.41211L115.812 4.66016H116.973L114.424 11.9785C114.029 13.0332 113.402 13.5605 112.543 13.5605L112.338 13.543L111.934 13.4668V12.5879L112.227 12.6113C112.594 12.6113 112.879 12.5371 113.082 12.3887C113.289 12.2402 113.459 11.9688 113.592 11.5742L113.832 10.9297L111.57 4.66016H112.754L114.336 9.41211ZM120.729 5.02344C121.525 5.02344 122.162 5.29102 122.639 5.82617C123.119 6.35742 123.359 7.05859 123.359 7.92969V8.0293C123.359 8.62695 123.244 9.16211 123.014 9.63477C122.783 10.1035 122.451 10.4688 122.018 10.7305C121.588 10.9883 121.092 11.1172 120.529 11.1172C119.678 11.1172 118.992 10.834 118.473 10.2676C117.953 9.69727 117.693 8.93359 117.693 7.97656V7.44922C117.693 6.11719 117.939 5.05859 118.432 4.27344C118.928 3.48828 119.658 3.00977 120.623 2.83789C121.17 2.74023 121.539 2.62109 121.73 2.48047C121.922 2.33984 122.018 2.14648 122.018 1.90039H122.908C122.908 2.38867 122.797 2.76953 122.574 3.04297C122.355 3.31641 122.004 3.50977 121.52 3.62305L120.711 3.80469C120.066 3.95703 119.582 4.21484 119.258 4.57812C118.938 4.9375 118.729 5.41797 118.631 6.01953C119.205 5.35547 119.904 5.02344 120.729 5.02344ZM120.518 5.91406C119.986 5.91406 119.564 6.09375 119.252 6.45312C118.939 6.80859 118.783 7.30273 118.783 7.93555V8.0293C118.783 8.70898 118.939 9.24805 119.252 9.64648C119.568 10.041 119.994 10.2383 120.529 10.2383C121.068 10.2383 121.494 10.0391 121.807 9.64062C122.119 9.24219 122.275 8.66016 122.275 7.89453C122.275 7.29688 122.117 6.81836 121.801 6.45898C121.488 6.0957 121.061 5.91406 120.518 5.91406ZM129.775 4.66016V11H128.686V5.55664H126.529L126.4 7.92969C126.33 9.01953 126.146 9.79883 125.85 10.2676C125.557 10.7363 125.09 10.9805 124.449 11H124.016V10.0449L124.326 10.0215C124.678 9.98242 124.93 9.7793 125.082 9.41211C125.234 9.04492 125.332 8.36523 125.375 7.37305L125.492 4.66016H129.775ZM135.617 4.66016H136.701V11H135.617V6.37695L132.693 11H131.609V4.66016H132.693V9.28906L135.617 4.66016ZM140.416 8.29883H139.625V11H138.535V4.66016H139.625V7.34375H140.334L142.467 4.66016H143.779L141.271 7.70703L143.99 11H142.613L140.416 8.29883ZM144.506 7.77148C144.506 7.15039 144.627 6.5918 144.869 6.0957C145.115 5.59961 145.455 5.2168 145.889 4.94727C146.326 4.67773 146.824 4.54297 147.383 4.54297C148.246 4.54297 148.943 4.8418 149.475 5.43945C150.01 6.03711 150.277 6.83203 150.277 7.82422V7.90039C150.277 8.51758 150.158 9.07227 149.92 9.56445C149.686 10.0527 149.348 10.4336 148.906 10.707C148.469 10.9805 147.965 11.1172 147.395 11.1172C146.535 11.1172 145.838 10.8184 145.303 10.2207C144.771 9.62305 144.506 8.83203 144.506 7.84766V7.77148ZM145.596 7.90039C145.596 8.60352 145.758 9.16797 146.082 9.59375C146.41 10.0195 146.848 10.2324 147.395 10.2324C147.945 10.2324 148.383 10.0176 148.707 9.58789C149.031 9.1543 149.193 8.54883 149.193 7.77148C149.193 7.07617 149.027 6.51367 148.695 6.08398C148.367 5.65039 147.93 5.43359 147.383 5.43359C146.848 5.43359 146.416 5.64648 146.088 6.07227C145.76 6.49805 145.596 7.10742 145.596 7.90039ZM151.736 11V4.66016H154.209C155.053 4.66016 155.699 4.80859 156.148 5.10547C156.602 5.39844 156.828 5.83008 156.828 6.40039C156.828 6.69336 156.74 6.95898 156.564 7.19727C156.389 7.43164 156.129 7.61133 155.785 7.73633C156.168 7.82617 156.475 8.00195 156.705 8.26367C156.939 8.52539 157.057 8.83789 157.057 9.20117C157.057 9.7832 156.842 10.2285 156.412 10.5371C155.986 10.8457 155.383 11 154.602 11H151.736ZM152.82 8.2168V10.127H154.613C155.066 10.127 155.404 10.043 155.627 9.875C155.854 9.70703 155.967 9.4707 155.967 9.16602C155.967 8.5332 155.502 8.2168 154.572 8.2168H152.82ZM152.82 7.34961H154.221C155.236 7.34961 155.744 7.05273 155.744 6.45898C155.744 5.86523 155.264 5.55859 154.303 5.53906H152.82V7.34961ZM162.406 11C162.344 10.875 162.293 10.6523 162.254 10.332C161.75 10.8555 161.148 11.1172 160.449 11.1172C159.824 11.1172 159.311 10.9414 158.908 10.5898C158.51 10.2344 158.311 9.78516 158.311 9.24219C158.311 8.58203 158.561 8.07031 159.061 7.70703C159.564 7.33984 160.271 7.15625 161.182 7.15625H162.236V6.6582C162.236 6.2793 162.123 5.97852 161.896 5.75586C161.67 5.5293 161.336 5.41602 160.895 5.41602C160.508 5.41602 160.184 5.51367 159.922 5.70898C159.66 5.9043 159.529 6.14062 159.529 6.41797H158.439C158.439 6.10156 158.551 5.79688 158.773 5.50391C159 5.20703 159.305 4.97266 159.688 4.80078C160.074 4.62891 160.498 4.54297 160.959 4.54297C161.689 4.54297 162.262 4.72656 162.676 5.09375C163.09 5.45703 163.305 5.95898 163.32 6.59961V9.51758C163.32 10.0996 163.395 10.5625 163.543 10.9062V11H162.406ZM160.607 10.1738C160.947 10.1738 161.27 10.0859 161.574 9.91016C161.879 9.73438 162.1 9.50586 162.236 9.22461V7.92383H161.387C160.059 7.92383 159.395 8.3125 159.395 9.08984C159.395 9.42969 159.508 9.69531 159.734 9.88672C159.961 10.0781 160.252 10.1738 160.607 10.1738ZM170.199 11H169.115V8.29297H166.203V11H165.113V4.66016H166.203V7.4082H169.115V4.66016H170.199V11ZM171.658 7.77148C171.658 7.15039 171.779 6.5918 172.021 6.0957C172.268 5.59961 172.607 5.2168 173.041 4.94727C173.479 4.67773 173.977 4.54297 174.535 4.54297C175.398 4.54297 176.096 4.8418 176.627 5.43945C177.162 6.03711 177.43 6.83203 177.43 7.82422V7.90039C177.43 8.51758 177.311 9.07227 177.072 9.56445C176.838 10.0527 176.5 10.4336 176.059 10.707C175.621 10.9805 175.117 11.1172 174.547 11.1172C173.688 11.1172 172.99 10.8184 172.455 10.2207C171.924 9.62305 171.658 8.83203 171.658 7.84766V7.77148ZM172.748 7.90039C172.748 8.60352 172.91 9.16797 173.234 9.59375C173.562 10.0195 174 10.2324 174.547 10.2324C175.098 10.2324 175.535 10.0176 175.859 9.58789C176.184 9.1543 176.346 8.54883 176.346 7.77148C176.346 7.07617 176.18 6.51367 175.848 6.08398C175.52 5.65039 175.082 5.43359 174.535 5.43359C174 5.43359 173.568 5.64648 173.24 6.07227C172.912 6.49805 172.748 7.10742 172.748 7.90039ZM187.244 11H181.654V10.2207L184.607 6.93945C185.045 6.44336 185.346 6.04102 185.51 5.73242C185.678 5.41992 185.762 5.09766 185.762 4.76562C185.762 4.32031 185.627 3.95508 185.357 3.66992C185.088 3.38477 184.729 3.24219 184.279 3.24219C183.74 3.24219 183.32 3.39648 183.02 3.70508C182.723 4.00977 182.574 4.43555 182.574 4.98242H181.49C181.49 4.19727 181.742 3.5625 182.246 3.07812C182.754 2.59375 183.432 2.35156 184.279 2.35156C185.072 2.35156 185.699 2.56055 186.16 2.97852C186.621 3.39258 186.852 3.94531 186.852 4.63672C186.852 5.47656 186.316 6.47656 185.246 7.63672L182.961 10.1152H187.244V11ZM193.982 11H188.393V10.2207L191.346 6.93945C191.783 6.44336 192.084 6.04102 192.248 5.73242C192.416 5.41992 192.5 5.09766 192.5 4.76562C192.5 4.32031 192.365 3.95508 192.096 3.66992C191.826 3.38477 191.467 3.24219 191.018 3.24219C190.479 3.24219 190.059 3.39648 189.758 3.70508C189.461 4.00977 189.312 4.43555 189.312 4.98242H188.229C188.229 4.19727 188.48 3.5625 188.984 3.07812C189.492 2.59375 190.17 2.35156 191.018 2.35156C191.811 2.35156 192.438 2.56055 192.898 2.97852C193.359 3.39258 193.59 3.94531 193.59 4.63672C193.59 5.47656 193.055 6.47656 191.984 7.63672L189.699 10.1152H193.982V11ZM195.207 10.4316C195.207 10.2441 195.262 10.0879 195.371 9.96289C195.484 9.83789 195.652 9.77539 195.875 9.77539C196.098 9.77539 196.266 9.83789 196.379 9.96289C196.496 10.0879 196.555 10.2441 196.555 10.4316C196.555 10.6113 196.496 10.7617 196.379 10.8828C196.266 11.0039 196.098 11.0645 195.875 11.0645C195.652 11.0645 195.484 11.0039 195.371 10.8828C195.262 10.7617 195.207 10.6113 195.207 10.4316ZM195.213 5.25781C195.213 5.07031 195.268 4.91406 195.377 4.78906C195.49 4.66406 195.658 4.60156 195.881 4.60156C196.104 4.60156 196.271 4.66406 196.385 4.78906C196.502 4.91406 196.561 5.07031 196.561 5.25781C196.561 5.4375 196.502 5.58789 196.385 5.70898C196.271 5.83008 196.104 5.89062 195.881 5.89062C195.658 5.89062 195.49 5.83008 195.377 5.70898C195.268 5.58789 195.213 5.4375 195.213 5.25781ZM199.613 6.20703H200.428C200.939 6.19922 201.342 6.06445 201.635 5.80273C201.928 5.54102 202.074 5.1875 202.074 4.74219C202.074 3.74219 201.576 3.24219 200.58 3.24219C200.111 3.24219 199.736 3.37695 199.455 3.64648C199.178 3.91211 199.039 4.26562 199.039 4.70703H197.955C197.955 4.03125 198.201 3.4707 198.693 3.02539C199.189 2.57617 199.818 2.35156 200.58 2.35156C201.385 2.35156 202.016 2.56445 202.473 2.99023C202.93 3.41602 203.158 4.00781 203.158 4.76562C203.158 5.13672 203.037 5.49609 202.795 5.84375C202.557 6.19141 202.23 6.45117 201.816 6.62305C202.285 6.77148 202.646 7.01758 202.9 7.36133C203.158 7.70508 203.287 8.125 203.287 8.62109C203.287 9.38672 203.037 9.99414 202.537 10.4434C202.037 10.8926 201.387 11.1172 200.586 11.1172C199.785 11.1172 199.133 10.9004 198.629 10.4668C198.129 10.0332 197.879 9.46094 197.879 8.75H198.969C198.969 9.19922 199.115 9.55859 199.408 9.82812C199.701 10.0977 200.094 10.2324 200.586 10.2324C201.109 10.2324 201.51 10.0957 201.787 9.82227C202.064 9.54883 202.203 9.15625 202.203 8.64453C202.203 8.14844 202.051 7.76758 201.746 7.50195C201.441 7.23633 201.002 7.09961 200.428 7.0918H199.613V6.20703ZM209.949 4.69531C209.949 5.12109 209.836 5.5 209.609 5.83203C209.387 6.16406 209.084 6.42383 208.701 6.61133C209.146 6.80273 209.498 7.08203 209.756 7.44922C210.018 7.81641 210.148 8.23242 210.148 8.69727C210.148 9.43555 209.898 10.0234 209.398 10.4609C208.902 10.8984 208.248 11.1172 207.436 11.1172C206.615 11.1172 205.957 10.8984 205.461 10.4609C204.969 10.0195 204.723 9.43164 204.723 8.69727C204.723 8.23633 204.848 7.82031 205.098 7.44922C205.352 7.07812 205.701 6.79688 206.146 6.60547C205.768 6.41797 205.469 6.1582 205.25 5.82617C205.031 5.49414 204.922 5.11719 204.922 4.69531C204.922 3.97656 205.152 3.40625 205.613 2.98438C206.074 2.5625 206.682 2.35156 207.436 2.35156C208.186 2.35156 208.791 2.5625 209.252 2.98438C209.717 3.40625 209.949 3.97656 209.949 4.69531ZM209.064 8.67383C209.064 8.19727 208.912 7.80859 208.607 7.50781C208.307 7.20703 207.912 7.05664 207.424 7.05664C206.936 7.05664 206.543 7.20508 206.246 7.50195C205.953 7.79883 205.807 8.18945 205.807 8.67383C205.807 9.1582 205.949 9.53906 206.234 9.81641C206.523 10.0938 206.924 10.2324 207.436 10.2324C207.943 10.2324 208.342 10.0938 208.631 9.81641C208.92 9.53516 209.064 9.1543 209.064 8.67383ZM207.436 3.24219C207.01 3.24219 206.664 3.375 206.398 3.64062C206.137 3.90234 206.006 4.25977 206.006 4.71289C206.006 5.14648 206.135 5.49805 206.393 5.76758C206.654 6.0332 207.002 6.16602 207.436 6.16602C207.869 6.16602 208.215 6.0332 208.473 5.76758C208.734 5.49805 208.865 5.14648 208.865 4.71289C208.865 4.2793 208.73 3.92578 208.461 3.65234C208.191 3.37891 207.85 3.24219 207.436 3.24219ZM220.08 11H214.49V10.2207L217.443 6.93945C217.881 6.44336 218.182 6.04102 218.346 5.73242C218.514 5.41992 218.598 5.09766 218.598 4.76562C218.598 4.32031 218.463 3.95508 218.193 3.66992C217.924 3.38477 217.564 3.24219 217.115 3.24219C216.576 3.24219 216.156 3.39648 215.855 3.70508C215.559 4.00977 215.41 4.43555 215.41 4.98242H214.326C214.326 4.19727 214.578 3.5625 215.082 3.07812C215.59 2.59375 216.268 2.35156 217.115 2.35156C217.908 2.35156 218.535 2.56055 218.996 2.97852C219.457 3.39258 219.688 3.94531 219.688 4.63672C219.688 5.47656 219.152 6.47656 218.082 7.63672L215.797 10.1152H220.08V11ZM221.727 6.72266L222.16 2.46875H226.531V3.4707H223.08L222.822 5.79688C223.24 5.55078 223.715 5.42773 224.246 5.42773C225.023 5.42773 225.641 5.68555 226.098 6.20117C226.555 6.71289 226.783 7.40625 226.783 8.28125C226.783 9.16016 226.545 9.85352 226.068 10.3613C225.596 10.8652 224.934 11.1172 224.082 11.1172C223.328 11.1172 222.713 10.9082 222.236 10.4902C221.76 10.0723 221.488 9.49414 221.422 8.75586H222.447C222.514 9.24414 222.688 9.61328 222.969 9.86328C223.25 10.1094 223.621 10.2324 224.082 10.2324C224.586 10.2324 224.98 10.0605 225.266 9.7168C225.555 9.37305 225.699 8.89844 225.699 8.29297C225.699 7.72266 225.543 7.26562 225.23 6.92188C224.922 6.57422 224.51 6.40039 223.994 6.40039C223.521 6.40039 223.15 6.50391 222.881 6.71094L222.594 6.94531L221.727 6.72266ZM230.334 7.81836H227.475V6.93359H230.334V7.81836ZM238.127 7.00977C238.127 7.8457 237.986 8.57617 237.705 9.20117C237.424 9.82227 237.025 10.2969 236.51 10.625C235.994 10.9531 235.393 11.1172 234.705 11.1172C234.033 11.1172 233.438 10.9531 232.918 10.625C232.398 10.293 231.994 9.82227 231.705 9.21289C231.42 8.59961 231.273 7.89062 231.266 7.08594V6.4707C231.266 5.65039 231.408 4.92578 231.693 4.29688C231.979 3.66797 232.381 3.1875 232.9 2.85547C233.424 2.51953 234.021 2.35156 234.693 2.35156C235.377 2.35156 235.979 2.51758 236.498 2.84961C237.021 3.17773 237.424 3.65625 237.705 4.28516C237.986 4.91016 238.127 5.63867 238.127 6.4707V7.00977ZM237.008 6.45898C237.008 5.44727 236.805 4.67188 236.398 4.13281C235.992 3.58984 235.424 3.31836 234.693 3.31836C233.982 3.31836 233.422 3.58984 233.012 4.13281C232.605 4.67188 232.396 5.42188 232.385 6.38281V7.00977C232.385 7.99023 232.59 8.76172 233 9.32422C233.414 9.88281 233.982 10.1621 234.705 10.1621C235.432 10.1621 235.994 9.89844 236.393 9.37109C236.791 8.83984 236.996 8.08008 237.008 7.0918V6.45898ZM241.619 8.29883H240.828V11H239.738V4.66016H240.828V7.34375H241.537L243.67 4.66016H244.982L242.475 7.70703L245.193 11H243.816L241.619 8.29883ZM250.836 5.53906H248.709V11H247.625V5.53906H245.539V4.66016H250.836V5.53906ZM260.346 11H254.756V10.2207L257.709 6.93945C258.146 6.44336 258.447 6.04102 258.611 5.73242C258.779 5.41992 258.863 5.09766 258.863 4.76562C258.863 4.32031 258.729 3.95508 258.459 3.66992C258.189 3.38477 257.83 3.24219 257.381 3.24219C256.842 3.24219 256.422 3.39648 256.121 3.70508C255.824 4.00977 255.676 4.43555 255.676 4.98242H254.592C254.592 4.19727 254.844 3.5625 255.348 3.07812C255.855 2.59375 256.533 2.35156 257.381 2.35156C258.174 2.35156 258.801 2.56055 259.262 2.97852C259.723 3.39258 259.953 3.94531 259.953 4.63672C259.953 5.47656 259.418 6.47656 258.348 7.63672L256.062 10.1152H260.346V11ZM266.844 7.36133C266.844 8.63086 266.627 9.57422 266.193 10.1914C265.76 10.8086 265.082 11.1172 264.16 11.1172C263.25 11.1172 262.576 10.8164 262.139 10.2148C261.701 9.60938 261.475 8.70703 261.459 7.50781V6.06055C261.459 4.80664 261.676 3.875 262.109 3.26562C262.543 2.65625 263.223 2.35156 264.148 2.35156C265.066 2.35156 265.742 2.64648 266.176 3.23633C266.609 3.82227 266.832 4.72852 266.844 5.95508V7.36133ZM265.76 5.87891C265.76 4.96094 265.631 4.29297 265.373 3.875C265.115 3.45312 264.707 3.24219 264.148 3.24219C263.594 3.24219 263.189 3.45117 262.936 3.86914C262.682 4.28711 262.551 4.92969 262.543 5.79688V7.53125C262.543 8.45312 262.676 9.13477 262.941 9.57617C263.211 10.0137 263.617 10.2324 264.16 10.2324C264.695 10.2324 265.092 10.0254 265.35 9.61133C265.611 9.19727 265.748 8.54492 265.76 7.6543V5.87891ZM273.822 11H268.232V10.2207L271.186 6.93945C271.623 6.44336 271.924 6.04102 272.088 5.73242C272.256 5.41992 272.34 5.09766 272.34 4.76562C272.34 4.32031 272.205 3.95508 271.936 3.66992C271.666 3.38477 271.307 3.24219 270.857 3.24219C270.318 3.24219 269.898 3.39648 269.598 3.70508C269.301 4.00977 269.152 4.43555 269.152 4.98242H268.068C268.068 4.19727 268.32 3.5625 268.824 3.07812C269.332 2.59375 270.01 2.35156 270.857 2.35156C271.65 2.35156 272.277 2.56055 272.738 2.97852C273.199 3.39258 273.43 3.94531 273.43 4.63672C273.43 5.47656 272.895 6.47656 271.824 7.63672L269.539 10.1152H273.822V11ZM278.533 11H277.443V3.77539L275.258 4.57812V3.59375L278.363 2.42773H278.533V11Z" fill="#999999"/>
<path d="M23.2715 11H22.1816V3.77539L19.9961 4.57812V3.59375L23.1016 2.42773H23.2715V11ZM32.0371 11H26.4473V10.2207L29.4004 6.93945C29.8379 6.44336 30.1387 6.04102 30.3027 5.73242C30.4707 5.41992 30.5547 5.09766 30.5547 4.76562C30.5547 4.32031 30.4199 3.95508 30.1504 3.66992C29.8809 3.38477 29.5215 3.24219 29.0723 3.24219C28.5332 3.24219 28.1133 3.39648 27.8125 3.70508C27.5156 4.00977 27.3672 4.43555 27.3672 4.98242H26.2832C26.2832 4.19727 26.5352 3.5625 27.0391 3.07812C27.5469 2.59375 28.2246 2.35156 29.0723 2.35156C29.8652 2.35156 30.4922 2.56055 30.9531 2.97852C31.4141 3.39258 31.6445 3.94531 31.6445 4.63672C31.6445 5.47656 31.1094 6.47656 30.0391 7.63672L27.7539 10.1152H32.0371V11ZM37.3398 7.25C37.1133 7.51953 36.8418 7.73633 36.5254 7.90039C36.2129 8.06445 35.8691 8.14648 35.4941 8.14648C35.002 8.14648 34.5723 8.02539 34.2051 7.7832C33.8418 7.54102 33.5605 7.20117 33.3613 6.76367C33.1621 6.32227 33.0625 5.83594 33.0625 5.30469C33.0625 4.73438 33.1699 4.2207 33.3848 3.76367C33.6035 3.30664 33.9121 2.95703 34.3105 2.71484C34.709 2.47266 35.1738 2.35156 35.7051 2.35156C36.5488 2.35156 37.2129 2.66797 37.6973 3.30078C38.1855 3.92969 38.4297 4.78906 38.4297 5.87891V6.19531C38.4297 7.85547 38.1016 9.06836 37.4453 9.83398C36.7891 10.5957 35.7988 10.9863 34.4746 11.0059H34.2637V10.0918H34.4922C35.3867 10.0762 36.0742 9.84375 36.5547 9.39453C37.0352 8.94141 37.2969 8.22656 37.3398 7.25ZM35.6699 7.25C36.0332 7.25 36.3672 7.13867 36.6719 6.91602C36.9805 6.69336 37.2051 6.41797 37.3457 6.08984V5.65625C37.3457 4.94531 37.1914 4.36719 36.8828 3.92188C36.5742 3.47656 36.1836 3.25391 35.7109 3.25391C35.2344 3.25391 34.8516 3.4375 34.5625 3.80469C34.2734 4.16797 34.1289 4.64844 34.1289 5.24609C34.1289 5.82812 34.2676 6.30859 34.5449 6.6875C34.8262 7.0625 35.2012 7.25 35.6699 7.25ZM45.0977 4.69531C45.0977 5.12109 44.9844 5.5 44.7578 5.83203C44.5352 6.16406 44.2324 6.42383 43.8496 6.61133C44.2949 6.80273 44.6465 7.08203 44.9043 7.44922C45.166 7.81641 45.2969 8.23242 45.2969 8.69727C45.2969 9.43555 45.0469 10.0234 44.5469 10.4609C44.0508 10.8984 43.3965 11.1172 42.584 11.1172C41.7637 11.1172 41.1055 10.8984 40.6094 10.4609C40.1172 10.0195 39.8711 9.43164 39.8711 8.69727C39.8711 8.23633 39.9961 7.82031 40.2461 7.44922C40.5 7.07812 40.8496 6.79688 41.2949 6.60547C40.916 6.41797 40.6172 6.1582 40.3984 5.82617C40.1797 5.49414 40.0703 5.11719 40.0703 4.69531C40.0703 3.97656 40.3008 3.40625 40.7617 2.98438C41.2227 2.5625 41.8301 2.35156 42.584 2.35156C43.334 2.35156 43.9395 2.5625 44.4004 2.98438C44.8652 3.40625 45.0977 3.97656 45.0977 4.69531ZM44.2129 8.67383C44.2129 8.19727 44.0605 7.80859 43.7559 7.50781C43.4551 7.20703 43.0605 7.05664 42.5723 7.05664C42.084 7.05664 41.6914 7.20508 41.3945 7.50195C41.1016 7.79883 40.9551 8.18945 40.9551 8.67383C40.9551 9.1582 41.0977 9.53906 41.3828 9.81641C41.6719 10.0938 42.0723 10.2324 42.584 10.2324C43.0918 10.2324 43.4902 10.0938 43.7793 9.81641C44.0684 9.53516 44.2129 9.1543 44.2129 8.67383ZM42.584 3.24219C42.1582 3.24219 41.8125 3.375 41.5469 3.64062C41.2852 3.90234 41.1543 4.25977 41.1543 4.71289C41.1543 5.14648 41.2832 5.49805 41.541 5.76758C41.8027 6.0332 42.1504 6.16602 42.584 6.16602C43.0176 6.16602 43.3633 6.0332 43.6211 5.76758C43.8828 5.49805 44.0137 5.14648 44.0137 4.71289C44.0137 4.2793 43.8789 3.92578 43.6094 3.65234C43.3398 3.37891 42.998 3.24219 42.584 3.24219ZM48.2383 6.20703H49.0527C49.5645 6.19922 49.9668 6.06445 50.2598 5.80273C50.5527 5.54102 50.6992 5.1875 50.6992 4.74219C50.6992 3.74219 50.2012 3.24219 49.2051 3.24219C48.7363 3.24219 48.3613 3.37695 48.0801 3.64648C47.8027 3.91211 47.6641 4.26562 47.6641 4.70703H46.5801C46.5801 4.03125 46.8262 3.4707 47.3184 3.02539C47.8145 2.57617 48.4434 2.35156 49.2051 2.35156C50.0098 2.35156 50.6406 2.56445 51.0977 2.99023C51.5547 3.41602 51.7832 4.00781 51.7832 4.76562C51.7832 5.13672 51.6621 5.49609 51.4199 5.84375C51.1816 6.19141 50.8555 6.45117 50.4414 6.62305C50.9102 6.77148 51.2715 7.01758 51.5254 7.36133C51.7832 7.70508 51.9121 8.125 51.9121 8.62109C51.9121 9.38672 51.6621 9.99414 51.1621 10.4434C50.6621 10.8926 50.0117 11.1172 49.2109 11.1172C48.4102 11.1172 47.7578 10.9004 47.2539 10.4668C46.7539 10.0332 46.5039 9.46094 46.5039 8.75H47.5938C47.5938 9.19922 47.7402 9.55859 48.0332 9.82812C48.3262 10.0977 48.7188 10.2324 49.2109 10.2324C49.7344 10.2324 50.1348 10.0957 50.4121 9.82227C50.6895 9.54883 50.8281 9.15625 50.8281 8.64453C50.8281 8.14844 50.6758 7.76758 50.3711 7.50195C50.0664 7.23633 49.627 7.09961 49.0527 7.0918H48.2383V6.20703Z" fill="#999999"/>
<path d="M7.00072 8.39998C7.66346 8.39998 8.20072 7.86273 8.20072 7.19998C8.20072 6.53724 7.66346 5.99998 7.00072 5.99998C6.33798 5.99998 5.80072 6.53724 5.80072 7.19998C5.80072 7.86273 6.33798 8.39998 7.00072 8.39998Z" stroke="#999999" stroke-linecap="round" stroke-linejoin="round"/>
<path d="M13 7.2C11.3998 10.0002 9.4 11.4 7 11.4C4.6 11.4 2.6002 10.0002 1 7.2C2.6002 4.3998 4.6 3 7 3C9.4 3 11.3998 4.3998 13 7.2Z" stroke="#999999" stroke-linecap="round" stroke-linejoin="round"/>
</svg>
