<svg width="138" height="17" viewBox="0 0 138 17" fill="none" xmlns="http://www.w3.org/2000/svg">
<path d="M0.462891 5.77148C0.462891 5.15039 0.585938 4.5918 0.832031 4.0957C1.07812 3.5957 1.42383 3.21289 1.86914 2.94727C2.31445 2.67773 2.82617 2.54297 3.4043 2.54297C4.25977 2.54297 4.95312 2.81836 5.48438 3.36914C6.01953 3.91992 6.30859 4.65039 6.35156 5.56055L6.35742 5.89453C6.35742 6.51953 6.23633 7.07812 5.99414 7.57031C5.75586 8.0625 5.41211 8.44336 4.96289 8.71289C4.51758 8.98242 4.00195 9.11719 3.41602 9.11719C2.52148 9.11719 1.80469 8.82031 1.26562 8.22656C0.730469 7.62891 0.462891 6.83398 0.462891 5.8418V5.77148ZM1.88672 5.89453C1.88672 6.54688 2.02148 7.05859 2.29102 7.42969C2.56055 7.79688 2.93555 7.98047 3.41602 7.98047C3.89648 7.98047 4.26953 7.79297 4.53516 7.41797C4.80469 7.04297 4.93945 6.49414 4.93945 5.77148C4.93945 5.13086 4.80078 4.62305 4.52344 4.24805C4.25 3.87305 3.87695 3.68555 3.4043 3.68555C2.93945 3.68555 2.57031 3.87109 2.29688 4.24219C2.02344 4.60938 1.88672 5.16016 1.88672 5.89453ZM12.375 3.79102H10.3184V9H8.89453V3.79102H6.86133V2.66016H12.375V3.79102Z" fill="#999999"/>
<path d="M34.4688 4.72266L34.9023 0.46875H39.2734V1.4707H35.8223L35.5645 3.79688C35.9824 3.55078 36.457 3.42773 36.9883 3.42773C37.7656 3.42773 38.3828 3.68555 38.8398 4.20117C39.2969 4.71289 39.5254 5.40625 39.5254 6.28125C39.5254 7.16016 39.2871 7.85352 38.8105 8.36133C38.3379 8.86523 37.6758 9.11719 36.8242 9.11719C36.0703 9.11719 35.4551 8.9082 34.9785 8.49023C34.502 8.07227 34.2305 7.49414 34.1641 6.75586H35.1895C35.2559 7.24414 35.4297 7.61328 35.7109 7.86328C35.9922 8.10938 36.3633 8.23242 36.8242 8.23242C37.3281 8.23242 37.7227 8.06055 38.0078 7.7168C38.2969 7.37305 38.4414 6.89844 38.4414 6.29297C38.4414 5.72266 38.2852 5.26562 37.9727 4.92188C37.6641 4.57422 37.252 4.40039 36.7363 4.40039C36.2637 4.40039 35.8926 4.50391 35.623 4.71094L35.3359 4.94531L34.4688 4.72266ZM46.0586 5.36133C46.0586 6.63086 45.8418 7.57422 45.4082 8.19141C44.9746 8.80859 44.2969 9.11719 43.375 9.11719C42.4648 9.11719 41.791 8.81641 41.3535 8.21484C40.916 7.60938 40.6895 6.70703 40.6738 5.50781V4.06055C40.6738 2.80664 40.8906 1.875 41.3242 1.26562C41.7578 0.65625 42.4375 0.351562 43.3633 0.351562C44.2812 0.351562 44.957 0.646484 45.3906 1.23633C45.8242 1.82227 46.0469 2.72852 46.0586 3.95508V5.36133ZM44.9746 3.87891C44.9746 2.96094 44.8457 2.29297 44.5879 1.875C44.3301 1.45312 43.9219 1.24219 43.3633 1.24219C42.8086 1.24219 42.4043 1.45117 42.1504 1.86914C41.8965 2.28711 41.7656 2.92969 41.7578 3.79688V5.53125C41.7578 6.45312 41.8906 7.13477 42.1562 7.57617C42.4258 8.01367 42.832 8.23242 43.375 8.23242C43.9102 8.23242 44.3066 8.02539 44.5645 7.61133C44.8262 7.19727 44.9629 6.54492 44.9746 5.6543V3.87891Z" fill="#161A1D"/>
<path d="M102.664 9H101.574V1.77539L99.3887 2.57812V1.59375L102.494 0.427734H102.664V9ZM111.189 5.36133C111.189 6.63086 110.973 7.57422 110.539 8.19141C110.105 8.80859 109.428 9.11719 108.506 9.11719C107.596 9.11719 106.922 8.81641 106.484 8.21484C106.047 7.60938 105.82 6.70703 105.805 5.50781V4.06055C105.805 2.80664 106.021 1.875 106.455 1.26562C106.889 0.65625 107.568 0.351562 108.494 0.351562C109.412 0.351562 110.088 0.646484 110.521 1.23633C110.955 1.82227 111.178 2.72852 111.189 3.95508V5.36133ZM110.105 3.87891C110.105 2.96094 109.977 2.29297 109.719 1.875C109.461 1.45312 109.053 1.24219 108.494 1.24219C107.939 1.24219 107.535 1.45117 107.281 1.86914C107.027 2.28711 106.896 2.92969 106.889 3.79688V5.53125C106.889 6.45312 107.021 7.13477 107.287 7.57617C107.557 8.01367 107.963 8.23242 108.506 8.23242C109.041 8.23242 109.438 8.02539 109.695 7.61133C109.957 7.19727 110.094 6.54492 110.105 5.6543V3.87891ZM117.928 5.36133C117.928 6.63086 117.711 7.57422 117.277 8.19141C116.844 8.80859 116.166 9.11719 115.244 9.11719C114.334 9.11719 113.66 8.81641 113.223 8.21484C112.785 7.60938 112.559 6.70703 112.543 5.50781V4.06055C112.543 2.80664 112.76 1.875 113.193 1.26562C113.627 0.65625 114.307 0.351562 115.232 0.351562C116.15 0.351562 116.826 0.646484 117.26 1.23633C117.693 1.82227 117.916 2.72852 117.928 3.95508V5.36133ZM116.844 3.87891C116.844 2.96094 116.715 2.29297 116.457 1.875C116.199 1.45312 115.791 1.24219 115.232 1.24219C114.678 1.24219 114.273 1.45117 114.02 1.86914C113.766 2.28711 113.635 2.92969 113.627 3.79688V5.53125C113.627 6.45312 113.76 7.13477 114.025 7.57617C114.295 8.01367 114.701 8.23242 115.244 8.23242C115.779 8.23242 116.176 8.02539 116.434 7.61133C116.695 7.19727 116.832 6.54492 116.844 5.6543V3.87891Z" fill="#161A1D"/>
<path d="M130.135 7.54004L131.697 3.7168H133.182V9H131.995V5.50391L130.54 9H129.734L128.274 5.48438V9H127.088V3.7168H128.582L130.135 7.54004ZM137.278 5.74316H134.29V5.13281L135.682 3.8584C136.049 3.52311 136.233 3.24642 136.233 3.02832C136.233 2.8916 136.189 2.78092 136.102 2.69629C136.014 2.6084 135.885 2.56445 135.716 2.56445C135.527 2.56445 135.379 2.61816 135.271 2.72559C135.164 2.83301 135.11 2.97461 135.11 3.15039H134.202C134.202 2.77279 134.339 2.46029 134.612 2.21289C134.889 1.96224 135.247 1.83691 135.687 1.83691C136.152 1.83691 136.512 1.94108 136.766 2.14941C137.02 2.35775 137.146 2.64909 137.146 3.02344C137.146 3.37174 136.974 3.71191 136.629 4.04395L136.15 4.46875L135.467 5.02051H137.278V5.74316Z" fill="#999999"/>
<path d="M67.7559 7.86328C68.1504 7.42188 68.4141 7.00391 68.5469 6.60938C68.6836 6.21094 68.7656 5.70312 68.793 5.08594L68.875 2.66016H73.2754V7.86328H74.1543V10.8867H72.7363V9H68.6699V10.8867H67.2285L67.2344 7.86328H67.7559ZM69.4258 7.86328H71.8574V3.88477H70.2578L70.2168 5.09766C70.1621 6.26172 69.8984 7.18359 69.4258 7.86328ZM74.9043 5.77148C74.9043 5.15039 75.0273 4.5918 75.2734 4.0957C75.5195 3.5957 75.8652 3.21289 76.3105 2.94727C76.7559 2.67773 77.2676 2.54297 77.8457 2.54297C78.7012 2.54297 79.3945 2.81836 79.9258 3.36914C80.4609 3.91992 80.75 4.65039 80.793 5.56055L80.7988 5.89453C80.7988 6.51953 80.6777 7.07812 80.4355 7.57031C80.1973 8.0625 79.8535 8.44336 79.4043 8.71289C78.959 8.98242 78.4434 9.11719 77.8574 9.11719C76.9629 9.11719 76.2461 8.82031 75.707 8.22656C75.1719 7.62891 74.9043 6.83398 74.9043 5.8418V5.77148ZM76.3281 5.89453C76.3281 6.54688 76.4629 7.05859 76.7324 7.42969C77.002 7.79688 77.377 7.98047 77.8574 7.98047C78.3379 7.98047 78.7109 7.79297 78.9766 7.41797C79.2461 7.04297 79.3809 6.49414 79.3809 5.77148C79.3809 5.13086 79.2422 4.62305 78.9648 4.24805C78.6914 3.87305 78.3184 3.68555 77.8457 3.68555C77.3809 3.68555 77.0117 3.87109 76.7383 4.24219C76.4648 4.60938 76.3281 5.16016 76.3281 5.89453Z" fill="#999999"/>
<line x1="23" y1="16.5" x2="57" y2="16.5" stroke="#999999"/>
<line x1="92" y1="16.5" x2="126" y2="16.5" stroke="#999999"/>
</svg>
