<svg width="26" height="26" viewBox="0 0 26 26" fill="none" xmlns="http://www.w3.org/2000/svg">
<path d="M17 7.33333C17 8.19039 16.7459 9.02819 16.2697 9.7408C15.7935 10.4534 15.1168 11.0088 14.325 11.3368C13.5331 11.6648 12.6619 11.7506 11.8213 11.5834C10.9807 11.4162 10.2086 11.0035 9.60254 10.3975C8.99651 9.79144 8.5838 9.01931 8.4166 8.17872C8.24939 7.33814 8.33521 6.46685 8.66319 5.67504C8.99117 4.88323 9.54658 4.20645 10.2592 3.7303C10.9718 3.25415 11.8096 3 12.6667 3C13.8159 3 14.9181 3.45655 15.7308 4.2692C16.5435 5.08186 17 6.18406 17 7.33333ZM15.9167 16H9.41667C7.98008 16 6.60233 16.5707 5.5865 17.5865C4.57068 18.6023 4 19.9801 4 21.4167V21.4167C4 21.704 4.11414 21.9795 4.3173 22.1827C4.52047 22.3859 4.79602 22.5 5.08333 22.5H20.25C20.5373 22.5 20.8129 22.3859 21.016 22.1827C21.2192 21.9795 21.3333 21.704 21.3333 21.4167C21.3333 19.9801 20.7627 18.6023 19.7468 17.5865C18.731 16.5707 17.3533 16 15.9167 16Z" stroke="#161A1D" stroke-width="2" stroke-linecap="round" stroke-linejoin="round"/>
</svg>
