<svg width="26" height="26" viewBox="0 0 26 26" fill="none" xmlns="http://www.w3.org/2000/svg">
<g clip-path="url(#clip0_517_1970)">
<path d="M4.33398 14.0833C6.26567 14.3129 8.06395 15.1857 9.43947 16.5612C10.815 17.9367 11.6878 19.735 11.9173 21.6667C12.8749 21.1146 13.6759 20.3275 14.2446 19.3797C14.8132 18.4319 15.1308 17.3547 15.1673 16.25C16.9864 15.6101 18.5748 14.4452 19.7318 12.9025C20.8888 11.3599 21.5623 9.50878 21.6673 7.58333C21.6673 6.72137 21.3249 5.89472 20.7154 5.28523C20.1059 4.67574 19.2793 4.33333 18.4173 4.33333C16.4919 4.43831 14.6408 5.11188 13.0981 6.26887C11.5555 7.42585 10.3906 9.01429 9.75065 10.8333C8.64594 10.8698 7.56877 11.1874 6.62097 11.7561C5.67317 12.3248 4.88604 13.1257 4.33398 14.0833" stroke="#000000" stroke-width="2" stroke-linecap="round" stroke-linejoin="round"/>
<path d="M7.58377 15.1667C6.45627 15.8032 5.54456 16.762 4.96553 17.92C4.38649 19.0781 4.1665 20.3828 4.33377 21.6667C5.61769 21.8339 6.92232 21.614 8.0804 21.0349C9.23848 20.4559 10.1972 19.5442 10.8338 18.4167" stroke="#000000" stroke-width="2" stroke-linecap="round" stroke-linejoin="round"/>
<path d="M16.2493 10.8333C16.8477 10.8333 17.3327 10.3483 17.3327 9.75001C17.3327 9.1517 16.8477 8.66667 16.2493 8.66667C15.651 8.66667 15.166 9.1517 15.166 9.75001C15.166 10.3483 15.651 10.8333 16.2493 10.8333Z" stroke="#000000" stroke-width="2" stroke-linecap="round" stroke-linejoin="round"/>
</g>
<defs>
<clipPath id="clip0_517_1970">
<rect width="26" height="26" fill="white"/>
</clipPath>
</defs>
</svg>
