<svg width="126" height="17" viewBox="0 0 126 17" fill="none" xmlns="http://www.w3.org/2000/svg">
<path d="M0.462891 5.77148C0.462891 5.15039 0.585938 4.5918 0.832031 4.0957C1.07812 3.5957 1.42383 3.21289 1.86914 2.94727C2.31445 2.67773 2.82617 2.54297 3.4043 2.54297C4.25977 2.54297 4.95312 2.81836 5.48438 3.36914C6.01953 3.91992 6.30859 4.65039 6.35156 5.56055L6.35742 5.89453C6.35742 6.51953 6.23633 7.07812 5.99414 7.57031C5.75586 8.0625 5.41211 8.44336 4.96289 8.71289C4.51758 8.98242 4.00195 9.11719 3.41602 9.11719C2.52148 9.11719 1.80469 8.82031 1.26562 8.22656C0.730469 7.62891 0.462891 6.83398 0.462891 5.8418V5.77148ZM1.88672 5.89453C1.88672 6.54688 2.02148 7.05859 2.29102 7.42969C2.56055 7.79688 2.93555 7.98047 3.41602 7.98047C3.89648 7.98047 4.26953 7.79297 4.53516 7.41797C4.80469 7.04297 4.93945 6.49414 4.93945 5.77148C4.93945 5.13086 4.80078 4.62305 4.52344 4.24805C4.25 3.87305 3.87695 3.68555 3.4043 3.68555C2.93945 3.68555 2.57031 3.87109 2.29688 4.24219C2.02344 4.60938 1.88672 5.16016 1.88672 5.89453ZM12.375 3.79102H10.3184V9H8.89453V3.79102H6.86133V2.66016H12.375V3.79102Z" fill="#999999"/>
<path d="M38.3379 4.72266L38.7715 0.46875H43.1426V1.4707H39.6914L39.4336 3.79688C39.8516 3.55078 40.3262 3.42773 40.8574 3.42773C41.6348 3.42773 42.252 3.68555 42.709 4.20117C43.166 4.71289 43.3945 5.40625 43.3945 6.28125C43.3945 7.16016 43.1562 7.85352 42.6797 8.36133C42.207 8.86523 41.5449 9.11719 40.6934 9.11719C39.9395 9.11719 39.3242 8.9082 38.8477 8.49023C38.3711 8.07227 38.0996 7.49414 38.0332 6.75586H39.0586C39.125 7.24414 39.2988 7.61328 39.5801 7.86328C39.8613 8.10938 40.2324 8.23242 40.6934 8.23242C41.1973 8.23242 41.5918 8.06055 41.877 7.7168C42.166 7.37305 42.3105 6.89844 42.3105 6.29297C42.3105 5.72266 42.1543 5.26562 41.8418 4.92188C41.5332 4.57422 41.1211 4.40039 40.6055 4.40039C40.1328 4.40039 39.7617 4.50391 39.4922 4.71094L39.2051 4.94531L38.3379 4.72266Z" fill="#161A1D"/>
<path d="M106.533 9H105.443V1.77539L103.258 2.57812V1.59375L106.363 0.427734H106.533V9ZM115.299 9H109.709V8.2207L112.662 4.93945C113.1 4.44336 113.4 4.04102 113.564 3.73242C113.732 3.41992 113.816 3.09766 113.816 2.76562C113.816 2.32031 113.682 1.95508 113.412 1.66992C113.143 1.38477 112.783 1.24219 112.334 1.24219C111.795 1.24219 111.375 1.39648 111.074 1.70508C110.777 2.00977 110.629 2.43555 110.629 2.98242H109.545C109.545 2.19727 109.797 1.5625 110.301 1.07812C110.809 0.59375 111.486 0.351562 112.334 0.351562C113.127 0.351562 113.754 0.560547 114.215 0.978516C114.676 1.39258 114.906 1.94531 114.906 2.63672C114.906 3.47656 114.371 4.47656 113.301 5.63672L111.016 8.11523H115.299V9Z" fill="#161A1D"/>
<path d="M67.7559 7.86328C68.1504 7.42188 68.4141 7.00391 68.5469 6.60938C68.6836 6.21094 68.7656 5.70312 68.793 5.08594L68.875 2.66016H73.2754V7.86328H74.1543V10.8867H72.7363V9H68.6699V10.8867H67.2285L67.2344 7.86328H67.7559ZM69.4258 7.86328H71.8574V3.88477H70.2578L70.2168 5.09766C70.1621 6.26172 69.8984 7.18359 69.4258 7.86328ZM74.9043 5.77148C74.9043 5.15039 75.0273 4.5918 75.2734 4.0957C75.5195 3.5957 75.8652 3.21289 76.3105 2.94727C76.7559 2.67773 77.2676 2.54297 77.8457 2.54297C78.7012 2.54297 79.3945 2.81836 79.9258 3.36914C80.4609 3.91992 80.75 4.65039 80.793 5.56055L80.7988 5.89453C80.7988 6.51953 80.6777 7.07812 80.4355 7.57031C80.1973 8.0625 79.8535 8.44336 79.4043 8.71289C78.959 8.98242 78.4434 9.11719 77.8574 9.11719C76.9629 9.11719 76.2461 8.82031 75.707 8.22656C75.1719 7.62891 74.9043 6.83398 74.9043 5.8418V5.77148ZM76.3281 5.89453C76.3281 6.54688 76.4629 7.05859 76.7324 7.42969C77.002 7.79688 77.377 7.98047 77.8574 7.98047C78.3379 7.98047 78.7109 7.79297 78.9766 7.41797C79.2461 7.04297 79.3809 6.49414 79.3809 5.77148C79.3809 5.13086 79.2422 4.62305 78.9648 4.24805C78.6914 3.87305 78.3184 3.68555 77.8457 3.68555C77.3809 3.68555 77.0117 3.87109 76.7383 4.24219C76.4648 4.60938 76.3281 5.16016 76.3281 5.89453Z" fill="#999999"/>
<line x1="23" y1="16.5" x2="57" y2="16.5" stroke="#999999"/>
<line x1="92" y1="16.5" x2="126" y2="16.5" stroke="#999999"/>
</svg>
